<?xml version="1.0" standalone="no"?>
<!DOCTYPE svg PUBLIC "-//W3C//DTD SVG 1.1//EN" "http://www.w3.org/Graphics/SVG/1.1/DTD/svg11.dtd" >
<svg xmlns="http://www.w3.org/2000/svg" xmlns:xlink="http://www.w3.org/1999/xlink" version="1.1">
<metadata></metadata>
<defs>
<font id="boost_neoblack" horiz-adv-x="1150" >
<font-face units-per-em="2048" ascent="1536" descent="-512" />
<missing-glyph horiz-adv-x="471" />
<glyph horiz-adv-x="0" />
<glyph horiz-adv-x="682" />
<glyph unicode=" "  horiz-adv-x="471" />
<glyph unicode="&#x09;" horiz-adv-x="471" />
<glyph unicode="&#xa0;" horiz-adv-x="471" />
<glyph unicode="!" horiz-adv-x="430" d="M92 0v254h246v-254h-246zM92 397v979h246v-979h-246z" />
<glyph unicode="&#x22;" horiz-adv-x="677" d="M51 1122v254h246v-254q0 -3 -12.5 -61t-25.5 -120t-15 -71h-140q-2 9 -15 71t-25.5 120t-12.5 61zM381 1122v254h246v-254q0 -3 -12.5 -61t-26 -120t-15.5 -71h-139q-2 9 -15 71t-25.5 120t-12.5 61z" />
<glyph unicode="#" horiz-adv-x="1329" d="M92 324v219h242l53 229h-203v219h254l92 385h224l-92 -385h167l93 385h225l-92 -385h182v-219h-233l-54 -229h195v-219h-246l-76 -324h-225l76 324h-168l-76 -324h-223l76 324h-191zM557 543h168l53 229h-168z" />
<glyph unicode="$" horiz-adv-x="1181" d="M57 420h254q0 -64 47.5 -114.5t111.5 -74.5t126 -24q47 0 94.5 10.5t92 32t72.5 60.5t28 91q0 27 -9 49t-30.5 39.5t-42.5 29.5t-59 24.5t-65 19.5t-75 19q-184 46 -264 82q-195 89 -226 266q-6 35 -6 74q0 81 29.5 149t80.5 115.5t116 79t141 45.5v151h246v-153 q144 -32 244 -123t100 -226h-256q-7 39 -45.5 69.5t-83 44t-84.5 13.5q-51 0 -102 -14.5t-91.5 -51.5t-40.5 -91q0 -35 17.5 -60.5t54.5 -44.5t73.5 -30.5t96.5 -26.5q179 -45 235 -65q205 -72 268 -208q32 -69 32 -157q0 -170 -121.5 -285.5t-296.5 -150.5v-154h-246v154 q-66 13 -126.5 38.5t-113.5 65t-92 88.5t-61.5 112t-22.5 132z" />
<glyph unicode="%" horiz-adv-x="1869" d="M51 1020q0 152 107.5 259t259.5 107t258 -107t106 -259q0 -153 -106 -260t-258 -107t-259.5 107.5t-107.5 259.5zM283 1020q0 -66 35.5 -108t99.5 -42q62 0 97.5 43.5t35.5 106.5q0 64 -35.5 105.5t-97.5 41.5q-64 0 -99.5 -41t-35.5 -106zM518 0l555 1376h264 l-555 -1376h-264zM1085 358q0 152 107.5 259.5t259.5 107.5t259.5 -107.5t107.5 -259.5t-107 -258t-260 -106t-260 106t-107 258zM1317 358q0 -64 36 -105.5t99 -41.5q61 0 98 42.5t37 104.5q0 64 -36.5 107t-98.5 43q-64 0 -99.5 -42t-35.5 -108z" />
<glyph unicode="&#x26;" horiz-adv-x="1460" d="M82 338q0 139 85.5 243t231.5 171l50 22q-69 80 -101.5 145.5t-32.5 145.5q0 87 55 162.5t140.5 118.5t177.5 43q140 0 247 -93t107 -225q0 -62 -19.5 -115t-55.5 -94t-72.5 -70t-83.5 -57l-16 -10l157 -178q153 184 260 321l160 -159q-113 -151 -268 -330l340 -379h-318 l-180 205l-6 -8q-115 -122 -203 -167.5t-229 -45.5q-190 0 -308 96.5t-118 257.5zM332 348q0 -58 52.5 -105.5t129.5 -47.5q136 0 266 151q2 3 10 11t11 14l-213 241l-58 -28q-94 -51 -146 -106t-52 -130zM557 1061q0 -69 61 -139l35 -39l17 10q70 42 104.5 89t34.5 89 q0 52 -34.5 83.5t-90.5 31.5q-54 0 -90.5 -35.5t-36.5 -89.5z" />
<glyph unicode="'" horiz-adv-x="348" d="M51 1122v254h246v-254q0 -3 -12.5 -61t-25.5 -120t-15 -71h-140q-2 9 -15 71t-25.5 120t-12.5 61z" />
<glyph unicode="(" horiz-adv-x="792" d="M92 641q0 473 289 868h237q-307 -403 -307 -868q0 -236 79.5 -462t227.5 -406h-237q-140 190 -214.5 412t-74.5 456z" />
<glyph unicode=")" horiz-adv-x="735" d="M119 -227q147 182 226 407.5t79 460.5q0 457 -305 868h235q141 -189 215 -410.5t74 -457.5t-74 -457.5t-215 -410.5h-235z" />
<glyph unicode="*" horiz-adv-x="878" d="M80 932l211 96l-211 102l113 175l163 -138l-20 213h211l-21 -213l164 138l113 -175l-211 -102l211 -98l-113 -174l-164 137l21 -213h-211l20 213l-163 -137z" />
<glyph unicode="+" horiz-adv-x="1081" d="M51 369v245h367v367h246v-367h366v-245h-366v-369h-246v369h-367z" />
<glyph unicode="," horiz-adv-x="348" d="M51 0v254h246v-254q0 -117 -61.5 -175t-180.5 -67v133q55 3 81 29t26 80h-111z" />
<glyph unicode="-" horiz-adv-x="669" d="M49 410v233h580v-233h-580z" />
<glyph unicode="." horiz-adv-x="348" d="M51 0v254h246v-254h-246z" />
<glyph unicode="/" horiz-adv-x="921" d="M51 0l555 1376h264l-555 -1376h-264z" />
<glyph unicode="0" horiz-adv-x="1136" d="M92 426v524q0 127 65 235t175 170t237 62q126 0 235.5 -62t174.5 -170t65 -235v-524q0 -127 -65 -235t-174.5 -170t-235.5 -62q-127 0 -237 62t-175 170t-65 235zM338 414q0 -94 68 -157.5t163 -63.5q94 0 163 64.5t69 156.5v551q0 92 -69.5 155.5t-162.5 63.5 q-94 0 -162.5 -63t-68.5 -156v-551z" />
<glyph unicode="1" horiz-adv-x="708" d="M92 1145v231h320q51 0 87 -36t36 -87v-1253h-246v1145h-197z" />
<glyph unicode="2" horiz-adv-x="1146" d="M92 948q5 127 70.5 233t174.5 167t236 61q204 0 343 -138.5t139 -342.5q0 -173 -140 -310l-385 -372h494v-246h-797q-51 0 -88 36t-37 87q0 52 39 88l588 569q80 77 80 168q0 100 -67.5 165t-168.5 65q-99 0 -164.5 -65.5t-70.5 -164.5h-246z" />
<glyph unicode="3" horiz-adv-x="1132" d="M92 426h246q0 -100 66.5 -166.5t164.5 -66.5q95 0 157 67t62 170q0 102 -129 180q-50 33 -67 67t-17 75q0 74 76 125q1 0 7.5 5.5t10.5 8.5t12 9.5t13 12.5t12 14.5t11.5 17.5t9 19t6.5 22t2 24q0 80 -42 127t-124 47q-101 0 -166 -68t-65 -166h-246q0 127 65.5 235 t174 170t233.5 62q110 0 207.5 -51t157 -140.5t59.5 -195.5q0 -82 -34.5 -151.5t-90.5 -114.5q84 -66 137.5 -156.5t53.5 -193.5q0 -122 -67.5 -227.5t-180.5 -166.5t-242 -61q-102 0 -191 38t-150.5 101.5t-96.5 149t-35 178.5z" />
<glyph unicode="4" horiz-adv-x="1222" d="M51 367q0 30 21 65l606 944h291l-584 -901h342v289h244v-289h200v-231h-200v-244h-244v244h-553q-50 0 -86.5 36t-36.5 87z" />
<glyph unicode="5" horiz-adv-x="1138" d="M92 434h246q0 -100 66 -172t165 -72q102 0 167 70.5t65 173.5q0 105 -64 175.5t-168 70.5q-27 0 -51.5 -5.5t-53.5 -21.5t-42 -24t-48.5 -34t-41.5 -30q-34 -24 -70 -24q-52 0 -92 44.5t-31 100.5l119 688h682v-231h-481l-43 -285q32 25 82.5 39t95.5 14q95 0 180 -39.5 t144.5 -104.5t94 -152t34.5 -181q0 -197 -140.5 -336t-337.5 -139t-337 139t-140 336z" />
<glyph unicode="6" horiz-adv-x="1054" d="M51 426v524q0 127 65 235t175 170t237 62q126 0 235.5 -62t175 -170t65.5 -235h-244q0 103 -64.5 172.5t-167.5 69.5q-102 0 -166.5 -69.5t-64.5 -172.5v-125h4q17 0 46.5 19t79.5 38t116 19q96 0 181.5 -38t145 -102.5t94.5 -151.5t35 -183q0 -128 -64.5 -236 t-174 -169.5t-236.5 -61.5q-128 0 -237 61.5t-172.5 169t-63.5 236.5zM297 426q0 -101 63 -168.5t164 -67.5q102 0 166 66.5t64 169.5q0 105 -56.5 173.5t-158.5 68.5q-41 0 -74.5 -14t-53 -30t-49 -30t-63.5 -14h-2v-154z" />
<glyph unicode="7" horiz-adv-x="1024" d="M51 1145v231h797q51 0 87 -35t36 -86q0 -29 -13 -55l-577 -1200h-272l567 1145h-625z" />
<glyph unicode="8" horiz-adv-x="1183" d="M74 414q0 107 51.5 196.5t142.5 149.5q-125 86 -125 270q0 111 64 201t166 138t219 48q116 0 219 -51t166 -140.5t63 -195.5q0 -185 -125 -266q91 -61 141 -151t50 -199q0 -92 -34.5 -174t-98 -145t-162.5 -99.5t-219 -36.5q-122 0 -222 36.5t-163.5 99.5t-98 145 t-34.5 174zM332 426q0 -100 78.5 -169t181.5 -69q102 0 179 69t77 169q0 59 -39 112t-80 83q-63 49 -63 131q0 69 57 118q12 10 24.5 24.5t28 48.5t15.5 69q0 80 -55 135t-144 55t-144 -55t-55 -135q0 -78 66 -144q53 -53 53 -116q0 -75 -57 -129q-123 -107 -123 -197z" />
<glyph unicode="9" horiz-adv-x="1138" d="M94 426h244q0 -103 64.5 -172.5t166.5 -69.5q103 0 167.5 69.5t64.5 172.5v125h-4q-17 0 -46.5 -19t-79.5 -38t-116 -19q-128 0 -233.5 64.5t-164.5 173.5t-59 237t64.5 236t174 169.5t236.5 61.5q196 0 335 -136t139 -331v-524q0 -127 -65.5 -235t-175.5 -170t-237 -62 q-126 0 -235.5 62t-174.5 170t-65 235zM344 950q0 -104 56.5 -172.5t158.5 -68.5q41 0 74.5 13.5t53 30.5t49 30.5t63.5 13.5h2v153q0 101 -63.5 168.5t-164.5 67.5q-102 0 -165.5 -66.5t-63.5 -169.5z" />
<glyph unicode=":" horiz-adv-x="430" d="M92 0v254h246v-254h-246zM92 700v254h246v-254h-246z" />
<glyph unicode=";" horiz-adv-x="430" d="M92 0v254h246v-254q0 -117 -61.5 -175t-180.5 -67v133q55 3 81 29t26 80h-111zM92 700v254h246v-254h-246z" />
<glyph unicode="&#x3c;" horiz-adv-x="1562" d="M92 555v266l1378 555v-264l-1048 -424l1048 -424v-264z" />
<glyph unicode="=" horiz-adv-x="1163" d="M92 123v244h979v-244h-979zM92 612v246h979v-246h-979z" />
<glyph unicode="&#x3e;" horiz-adv-x="1562" d="M92 0v264l1051 424l-1051 424v264l1378 -555v-266z" />
<glyph unicode="?" horiz-adv-x="1024" d="M51 918v47q0 188 135.5 317t325.5 129t325.5 -129t135.5 -317q0 -71 -20 -132.5t-51.5 -105.5t-70.5 -81.5t-77.5 -67.5t-70 -56t-51.5 -54t-20 -56v-62h-245v47q0 72 20 130.5t51.5 97t70 70.5t77 60t70 56t51.5 67t20 87q0 94 -60.5 153.5t-154.5 59.5t-154.5 -59.5 t-60.5 -153.5v-47h-246zM367 0v254h245v-254h-245z" />
<glyph unicode="@" horiz-adv-x="1527" d="M51 477q0 145 56.5 277t152 227.5t227.5 152t277 56.5t277 -56.5t227.5 -152t152 -227.5t56.5 -277q0 -58 -8 -114t-29 -113.5t-52.5 -100.5t-82.5 -70.5t-115 -27.5q-89 0 -146 53q-13 13 -29 33.5t-27 30.5t-23 10q-15 0 -50.5 -18.5t-82.5 -37t-89 -18.5 q-155 0 -263.5 109t-108.5 264t102.5 264t257.5 109q44 0 94 -17.5t88 -44.5v41h183v-489q0 -41 23 -70.5t65 -29.5q31 0 53 27t32.5 68.5t14.5 76.5t4 65q0 107 -41.5 204.5t-111 168.5t-167 113.5t-204.5 42.5q-143 0 -263.5 -72t-189.5 -193.5t-69 -263.5 q0 -106 41 -203.5t110.5 -168.5t166.5 -113.5t204 -42.5q116 0 250 67l80 -174q-189 -78 -330 -78q-145 0 -277 56.5t-227.5 152t-152 227.5t-56.5 277zM553 477q0 -76 56.5 -132t133.5 -56q35 0 90 23.5t80 27.5v274q-26 4 -81.5 28t-88.5 24q-77 0 -133.5 -56.5 t-56.5 -132.5z" />
<glyph unicode="A" horiz-adv-x="1417" d="M51 0l522 1376h271l522 -1376h-272l-113 295h-319q-222 0 -285 -160l-53 -135h-273zM516 508q46 29 131 29h242l-180 479z" />
<glyph unicode="B" horiz-adv-x="1224" d="M92 0v1376h633q173 0 289 -117.5t116 -289.5q0 -69 -30 -142t-80 -118q73 -53 113.5 -138t40.5 -178q0 -165 -117.5 -279t-282.5 -114h-682zM346 242h428q65 0 105.5 47.5t40.5 113.5q0 62 -43 114t-103 52h-293q-60 0 -97.5 -35.5t-37.5 -95.5v-196zM346 774 q40 37 125 37h254q68 0 110 49.5t42 118.5q0 63 -44.5 109.5t-107.5 46.5h-379v-361z" />
<glyph unicode="C" horiz-adv-x="1478" d="M51 688q0 145 56.5 277t152 227.5t227.5 152t277 56.5q219 0 400 -123.5t263 -327.5h-276q-62 102 -163 155.5t-224 53.5q-199 0 -329 -135.5t-130 -335.5t130 -336.5t329 -136.5q121 0 223 54.5t164 156.5h276q-82 -205 -263 -329t-400 -124q-145 0 -277 57t-227.5 153 t-152 228t-56.5 277z" />
<glyph unicode="D" horiz-adv-x="1294" d="M92 0v1376h502q313 0 498.5 -184.5t185.5 -497.5q0 -150 -50 -278.5t-138.5 -220t-216.5 -143.5t-279 -52h-502zM346 242h248q201 0 315.5 125t114.5 327q0 209 -109.5 325t-320.5 116h-248v-893z" />
<glyph unicode="E" horiz-adv-x="1146" d="M92 0v1376h963v-241h-709v-383q60 57 178 57h531v-242h-531q-76 0 -127 -50.5t-51 -127.5v-147h709v-242h-963z" />
<glyph unicode="F" horiz-adv-x="1146" d="M92 0v1376h963v-241h-709v-383q60 57 178 57h531v-242h-531q-76 0 -127 -50.5t-51 -127.5v-389h-254z" />
<glyph unicode="G" horiz-adv-x="1529" d="M51 688q0 145 56.5 277t152 228t227.5 153t277 57q219 0 400 -124t263 -329h-276q-62 102 -164 156.5t-223 54.5q-199 0 -329 -136.5t-130 -336.5t130 -335.5t329 -135.5q157 0 275.5 87.5t164.5 238.5h-504v241h770q9 -50 9 -96q0 -145 -57 -277.5t-153 -227.5 t-228 -151.5t-277 -56.5t-277 56.5t-227.5 152t-152 227.5t-56.5 277z" />
<glyph unicode="H" horiz-adv-x="1361" d="M92 0v1376h254v-618q61 51 170 51h498v567h256v-1376h-256v567h-506q-72 0 -117 -43.5t-45 -115.5v-408h-254z" />
<glyph unicode="I" horiz-adv-x="499" d="M123 0v1376h254v-1376h-254z" />
<glyph unicode="J" horiz-adv-x="1298" d="M51 549h254q0 -147 89 -241.5t235 -94.5t234.5 94.5t88.5 241.5v827h254v-827q0 -156 -77.5 -289t-210.5 -211t-289 -78t-289 78t-211 211t-78 289z" />
<glyph unicode="K" horiz-adv-x="1318" d="M92 0v1376h254v-563h6q69 1 99.5 20.5t85.5 84.5l387 458h336l-523 -588q-60 -68 -106 -96q11 -6 22 -14t24.5 -20.5t20 -19.5t23 -24t18.5 -20q100 -108 279 -311.5t250 -282.5h-334l-395 467q-34 40 -44.5 51.5t-33.5 29t-45 21.5t-58 4h-12v-573h-254z" />
<glyph unicode="L" horiz-adv-x="1116" d="M92 0v1376h254v-1134h719v-242h-973z" />
<glyph unicode="M" horiz-adv-x="1595" d="M92 0v1376h305l408 -899l393 899h305v-1376h-256v846l-295 -658h-121q-94 0 -156 46t-104 137l-225 491v-862h-254z" />
<glyph unicode="N" horiz-adv-x="1318" d="M92 0v1376h283l583 -1079l15 -25v1104h254v-1376h-183q-114 0 -185.5 49.5t-129.5 155.5l-383 702v-907h-254z" />
<glyph unicode="O" horiz-adv-x="1529" d="M51 688q0 145 57 277t153 228t228 153t277 57t277 -57t227.5 -153t152 -228t56.5 -277t-56.5 -277t-152 -227.5t-227.5 -152t-277 -56.5t-277 56.5t-228 152t-153 227.5t-57 277zM307 688q0 -200 130 -335.5t329 -135.5t329 135.5t130 335.5t-130 336.5t-329 136.5 t-329 -136.5t-130 -336.5z" />
<glyph unicode="P" horiz-adv-x="1251" d="M92 0v1376h625q137 0 248 -66.5t173 -179.5t62 -249q0 -132 -64.5 -243.5t-175.5 -176t-243 -64.5h-215q-72 0 -114 -40.5t-42 -112.5v-244h-254zM346 598q63 41 156 41h215q98 0 162.5 74t64.5 174q0 110 -63 179t-164 69h-371v-537z" />
<glyph unicode="Q" horiz-adv-x="1538" d="M51 688q0 145 57 277t153 228t228 153t277 57t277 -57t227.5 -153t152 -228t56.5 -277q0 -270 -181 -473l189 -215h-332l-51 61q-156 -86 -338 -86q-145 0 -277 56.5t-228 152t-153 227.5t-57 277zM307 688q0 -200 130 -335.5t329 -135.5q89 0 176 33q-66 79 -105 94 q-35 14 -122 14h-23h-28v242h106q67 0 116.5 -11t93 -39t75 -58.5t82.5 -88.5q88 125 88 285q0 200 -130 336.5t-329 136.5t-329 -136.5t-130 -336.5z" />
<glyph unicode="R" horiz-adv-x="1296" d="M92 0v1376h627q136 0 247 -67t172.5 -180t61.5 -248q0 -155 -92 -283t-238 -170l-14 -4l18 -21l371 -403h-340l-284 322q-33 38 -66 56.5t-80 18.5q-64 0 -95.5 -43t-31.5 -110v-244h-256zM348 594q57 45 164 45h207q100 0 163.5 73t63.5 175q0 110 -63 179t-164 69h-371 v-541z" />
<glyph unicode="S" horiz-adv-x="1181" d="M51 420h254q0 -64 47.5 -114.5t111.5 -74.5t126 -24q47 0 94.5 10.5t92 32t72.5 60.5t28 91q0 43 -26.5 75t-71.5 52t-103.5 36.5t-123 32.5t-128.5 35t-122.5 49.5t-103.5 71.5t-71.5 105t-26.5 146q0 97 42 175t111.5 126.5t155.5 74t179 25.5q63 0 128 -14.5 t126.5 -44.5t109 -72t76.5 -102.5t29 -129.5h-256q-7 39 -45.5 69.5t-83 44t-84.5 13.5q-51 0 -102 -14.5t-91.5 -51.5t-40.5 -91q0 -41 26.5 -71.5t71.5 -49.5t103 -34.5t122.5 -31.5t129 -35t122.5 -49.5t103 -71t71.5 -104.5t26.5 -145q0 -83 -31.5 -156t-84.5 -125.5 t-122.5 -91t-146.5 -57.5t-155 -19q-77 0 -154 19t-146.5 57.5t-122.5 91.5t-84.5 126t-31.5 155z" />
<glyph unicode="T" horiz-adv-x="1210" d="M51 1135v241h1108v-241h-289q-67 0 -106 -43t-39 -111v-981h-254v973q0 113 47 162h-467z" />
<glyph unicode="U" horiz-adv-x="1339" d="M92 557v819h254v-831q0 -133 95 -228.5t229 -95.5q133 0 228 95t95 229v831h254v-819q0 -117 -46 -223.5t-123.5 -184t-184 -123.5t-223.5 -46q-156 0 -289 77.5t-211 210.5t-78 289z" />
<glyph unicode="V" horiz-adv-x="1441" d="M51 1376h268l349 -1050q24 -74 63 -82l389 1132h271l-480 -1376h-151q-125 0 -208 66t-124 188z" />
<glyph unicode="W" horiz-adv-x="2017" d="M51 1376h256l279 -1100l2 -10l286 1110h267l266 -1093l4 -17l291 1110h264l-362 -1376h-162q-119 0 -191 69.5t-100 188.5l-147 633l-226 -891h-162q-114 0 -187 70.5t-103 187.5z" />
<glyph unicode="X" horiz-adv-x="1308" d="M51 1376h303l297 -479l301 479h305l-456 -692l450 -684h-303l-295 475l-293 -475h-303l449 682z" />
<glyph unicode="Y" horiz-adv-x="1388" d="M51 1376h275l264 -649q18 -43 50.5 -67t66.5 -30.5t84 -6.5l276 753h270l-503 -1376h-271l142 385q-117 11 -195 62.5t-123 154.5z" />
<glyph unicode="Z" horiz-adv-x="1128" d="M51 0v221l703 914h-654v241h977v-225l-698 -909h678v-242h-1006z" />
<glyph unicode="[" horiz-adv-x="638" d="M174 -246v1772h496v-221h-256v-1328h256v-223h-496z" />
<glyph unicode="\" horiz-adv-x="921" d="M51 1376h264l555 -1376h-264z" />
<glyph unicode="]" horiz-adv-x="638" d="M61 -25h256v1328h-256v223h496v-1772h-496v221z" />
<glyph unicode="^" horiz-adv-x="921" d="M51 666l287 710h246l286 -710h-204l-205 526l-203 -526h-207z" />
<glyph unicode="_" horiz-adv-x="966" d="M0 0h967v-168h-967v168z" />
<glyph unicode="`" horiz-adv-x="722" d="M92 1376h316l223 -289h-209z" />
<glyph unicode="a" horiz-adv-x="1222" d="M51 477q0 141 68.5 261t187.5 190q116 68 252 67h8q62 0 114.5 -13.5t80.5 -29.5t53.5 -29.5t40.5 -13.5v45h246v-694q0 -64 69 -133l-172 -174q-2 2 -20 21t-29.5 30.5t-28.5 23t-28 11.5q-21 0 -49 -12.5t-56.5 -27.5t-85.5 -27.5t-127 -12.5q-145 0 -265 67.5 t-189.5 186.5t-69.5 264zM295 477q0 -126 77.5 -206.5t202.5 -80.5q52 0 111.5 22t105.5 40q33 13 58 14q9 0 18 -2q-12 33 -12 101v313q-46 4 -127.5 44t-153.5 40q-125 0 -202.5 -80t-77.5 -205z" />
<glyph unicode="b" horiz-adv-x="1191" d="M92 0v1376h246v-465q20 0 58 21t97.5 42t131.5 21q223 0 369.5 -147.5t146.5 -370.5q0 -135 -64.5 -253.5t-179 -190.5t-250.5 -72q-60 0 -109.5 13.5t-77 29.5t-60 29.5t-62.5 13.5v-47h-246zM338 272h2q52 0 136 -40q86 -42 140 -42q122 0 200.5 82.5t78.5 204.5 t-78.5 203.5t-200.5 81.5q-62 0 -144.5 -41t-133.5 -41v-408z" />
<glyph unicode="c" horiz-adv-x="1124" d="M51 477q0 106 42 202.5t112.5 165.5t167 109.5t202.5 40.5q169 0 306 -97t192 -257h-264q-76 121 -234 121q-119 0 -198.5 -82.5t-79.5 -202.5t79.5 -203.5t198.5 -83.5q75 0 137 31t99 92h262q-50 -161 -188.5 -257.5t-309.5 -96.5q-106 0 -202.5 40.5t-167 109.5 t-112.5 165.5t-42 202.5z" />
<glyph unicode="d" horiz-adv-x="1224" d="M51 477q0 140 67.5 260.5t186 192t258.5 71.5q62 0 115.5 -13t82 -28.5t55 -28.5t40.5 -13v458h246v-1116q0 -61 72 -133l-175 -172q-2 2 -27.5 29t-42.5 38t-36 11q-14 0 -56.5 -20t-112 -40t-149.5 -20q-144 0 -264.5 69.5t-190 190t-69.5 264.5zM297 477 q0 -127 76.5 -210t201.5 -83q48 0 146.5 41t146.5 41q-12 33 -12 92v328q-45 4 -127.5 44t-153.5 40q-125 0 -201.5 -83t-76.5 -210z" />
<glyph unicode="e" d="M51 477q0 143 70.5 262t190.5 186.5t263 67.5q135 0 255.5 -64t195 -179t74.5 -252q0 -84 -10 -127h-670q-26 0 -45 -13.5t-19 -38.5q0 -14 11 -32q32 -47 89.5 -72t118.5 -25q132 0 209 91h277q-61 -150 -192.5 -236t-293.5 -86q-143 0 -263 68t-190.5 187.5 t-70.5 262.5zM297 537q57 47 152 47h385q-28 84 -95 131t-164 47q-107 0 -186.5 -60.5t-91.5 -164.5z" />
<glyph unicode="f" horiz-adv-x="657" d="M92 0v618q0 62 23.5 121.5t68.5 91.5q-42 37 -67 99t-25 121q0 145 94 235t240 90h180v-231h-180q-37 0 -62.5 -29.5t-25.5 -66.5q0 -36 26 -65.5t62 -29.5h180v-233h-180q-37 0 -62.5 -25.5t-25.5 -62.5v-633h-246z" />
<glyph unicode="g" horiz-adv-x="1196" d="M51 477q0 144 67.5 263t186 187t262.5 68q62 0 114.5 -13.5t80.5 -29.5t53.5 -29.5t40.5 -13.5v45h248v-942q0 -259 -130.5 -399.5t-363.5 -140.5q-176 0 -310.5 96.5t-174.5 249.5h283q42 -137 223 -137q105 0 166 73t61 211v72q-26 -5 -67 -27.5t-96 -39.5t-130 -17 q-106 0 -202 42t-164 113t-108 167.5t-40 201.5zM297 477q0 -126 76.5 -209.5t201.5 -83.5q71 0 154 40t129 44v410q-46 4 -128.5 44t-154.5 40q-126 0 -202 -80t-76 -205z" />
<glyph unicode="h" horiz-adv-x="1112" d="M92 0v1376h246v-465q34 6 82 28t101 39t112 17h7q118 0 214 -61q100 -63 153.5 -167t53.5 -226v-541h-246v553q0 88 -57 150.5t-144 62.5q-47 0 -136 -44t-140 -48v-674h-246z" />
<glyph unicode="i" horiz-adv-x="491" d="M123 0v954h246v-954h-246zM123 1124v252h246v-252h-246z" />
<glyph unicode="j" horiz-adv-x="520" d="M51 -178q7 0 23.5 -0.5t23.5 0t20 1t19 3t15.5 6t14 10t9 15t6.5 21t2 28.5v1046h244v-1046q0 -146 -79.5 -237t-223.5 -91h-74v244zM184 1124v252h244v-252h-244z" />
<glyph unicode="k" horiz-adv-x="1165" d="M92 0v1376h244v-776h6q52 0 80.5 11t62.5 46l285 297h344l-450 -440q-19 -19 -48 -37q20 -10 43 -33l453 -444h-344l-283 295q-32 34 -61 45.5t-74 13.5h-14v-354h-244z" />
<glyph unicode="l" horiz-adv-x="489" d="M123 0v1376h244v-1376h-244z" />
<glyph unicode="m" horiz-adv-x="1603" d="M92 0v954h246v-47q21 3 47 17.5t47.5 30t59.5 28t81 12.5q146 0 244 -112q115 112 281 112q170 0 291.5 -121.5t121.5 -291.5v-582h-245v594q0 70 -49 119t-119 49t-119 -49t-49 -119v-594h-244v594q0 78 -28 123t-101 45q-35 0 -68.5 -21t-71 -43.5t-79.5 -25.5v-672 h-246z" />
<glyph unicode="n" d="M92 0v954h246v-51q19 0 50.5 14.5t63.5 31.5t81 31.5t98 14.5h9q108 0 200 -49q96 -51 157.5 -152t61.5 -231v-563h-244v553q0 90 -57 151.5t-146 61.5q-36 0 -84 -24.5t-98 -49t-92 -24.5v-668h-246z" />
<glyph unicode="o" d="M51 477q0 140 71.5 259t192 188t260.5 69q139 0 260 -69t193 -188.5t72 -258.5q0 -140 -72 -259.5t-193 -189t-260 -69.5q-140 0 -261 69.5t-192 189t-71 259.5zM295 477q0 -121 80.5 -204t199.5 -83q120 0 199.5 83.5t79.5 203.5q0 119 -80 202t-199 83q-120 0 -200 -82 t-80 -203z" />
<glyph unicode="p" horiz-adv-x="1191" d="M92 -422v1376h246v-49q33 0 76.5 21.5t102.5 43t130 21.5q136 0 250.5 -71t179 -189t64.5 -254q0 -222 -146 -370t-368 -148q-72 0 -134.5 21t-101 42t-53.5 21v-465h-246zM338 274q44 0 87 -21t90 -42t101 -21q122 0 200.5 82.5t78.5 204.5t-78.5 203.5t-200.5 81.5 q-63 0 -141 -41t-137 -41v-406z" />
<glyph unicode="q" horiz-adv-x="1224" d="M51 477q0 144 69.5 264.5t190 190t264.5 69.5q63 0 120.5 -12.5t90.5 -27t62.5 -27t44.5 -12.5t31.5 9t25.5 17.5t27 27.5t22 23l175 -172q-70 -70 -70 -133v-1116h-246v459q-26 -5 -67 -27.5t-96 -39.5t-130 -17q-106 0 -202 42t-164 113t-108 167.5t-40 201.5zM297 477 q0 -126 76.5 -209.5t201.5 -83.5q71 0 154 40t129 44v328q0 67 12 100q-6 -2 -18 -2q-29 0 -74 19t-99 38t-104 19q-125 0 -201.5 -83.5t-76.5 -209.5z" />
<glyph unicode="r" horiz-adv-x="710" d="M51 825l174 174q6 -5 22.5 -22t25 -24.5t23.5 -18t30 -15t32 -4.5q18 0 56.5 20t102 40t142.5 20v-229q-21 6 -42 6q-27 0 -53 -9q-48 -16 -100 -40.5t-93 -26.5h-11q11 -27 11 -65v-631h-246v692q0 37 -11.5 60t-37.5 49z" />
<glyph unicode="s" horiz-adv-x="958" d="M51 315h246q0 -43 39 -74t85 -43t87 -12q31 0 64.5 8.5t61.5 31.5t28 55q0 18 -7.5 32.5t-24.5 26t-34.5 20t-46.5 16.5t-52 13.5t-58.5 14t-59.5 14.5q-48 13 -85 27t-76.5 38t-65 53t-42 73t-16.5 98q0 73 34.5 131t91 92.5t123 52.5t134.5 18q51 0 103.5 -11.5 t101 -36t86.5 -58t61 -82t23 -104.5l-244 -2q-8 35 -55.5 50t-93.5 15q-15 0 -33 -3t-37.5 -9t-33 -18.5t-13.5 -28.5q0 -22 24.5 -39t64 -27t90.5 -22.5t103.5 -26t103.5 -38.5t90.5 -57t64 -84.5t24.5 -119.5q0 -66 -25.5 -122.5t-68 -95t-98.5 -66t-116 -40t-122 -12.5 q-79 0 -154 23.5t-136.5 66.5t-98.5 111t-37 151z" />
<glyph unicode="t" horiz-adv-x="657" d="M92 324v315q0 129 80 203q-80 74 -80 200v201h246v-201q0 -37 25.5 -63.5t62.5 -26.5h180v-231h-180q-38 0 -63 -20t-25 -56v-311q0 -46 28 -74.5t74 -28.5h166v-231h-180q-143 0 -238.5 90.5t-95.5 233.5z" />
<glyph unicode="u" horiz-adv-x="1187" d="M92 414v540h246v-553q0 -89 55 -148.5t144 -59.5q62 0 142 38t130 43v680h244v-686q0 -10 1.5 -20t2.5 -17.5t5.5 -16t6.5 -13.5t9 -14t9 -12t11.5 -12t11.5 -11t13.5 -12.5t13.5 -12.5l-168 -168q-1 1 -20.5 21.5t-30.5 31t-29 22t-31 11.5q-19 0 -52.5 -13.5 t-67.5 -29.5t-89 -29.5t-112 -13.5q-190 0 -317.5 132t-127.5 323z" />
<glyph unicode="v" horiz-adv-x="1208" d="M51 952h264l283 -698l6 -16l287 714h266l-397 -952h-131q-106 0 -165 49.5t-102 153.5z" />
<glyph unicode="w" horiz-adv-x="1830" d="M51 952h260l224 -686l6 -18l235 704h279l221 -682l8 -22l236 704h260l-330 -952h-141q-108 0 -172 55.5t-97 157.5l-127 399l-206 -612h-144q-197 0 -266 209z" />
<glyph unicode="x" horiz-adv-x="1126" d="M51 952h307l205 -295l207 295h305l-364 -481l358 -471h-307l-199 287l-198 -287h-306l359 471z" />
<glyph unicode="y" horiz-adv-x="1228" d="M51 954h264l260 -671q16 -46 46 -56l292 727h265q-396 -968 -476 -1163q-85 -213 -348 -213h-45v246q70 0 104.5 10.5t50.5 30.5t38 72l24 63q-56 23 -106 75.5t-72 110.5z" />
<glyph unicode="z" horiz-adv-x="972" d="M51 0v221l531 500h-476v231h816v-227l-527 -494h527v-231h-871z" />
<glyph unicode="{" horiz-adv-x="806" d="M92 492v233h41q55 0 95 40.5t40 96.5v398q0 129 76 204.5t205 75.5h82v-233q-73 0 -100 -28t-27 -101v-357q0 -122 -94 -213q94 -91 94 -213v-356q0 -77 25.5 -103t101.5 -26l2 -236h-84q-129 0 -205 77t-76 206v397q0 56 -39.5 97t-95.5 41h-41z" />
<glyph unicode="|" horiz-adv-x="489" d="M123 -246v1772h244v-1772h-244z" />
<glyph unicode="}" horiz-adv-x="806" d="M174 1540h84q129 0 205 -75.5t76 -204.5v-398q0 -56 39.5 -96.5t95.5 -40.5h41v-233h-41q-55 0 -95 -41t-40 -97v-397q0 -129 -76 -206t-205 -77h-82v236q73 0 100 28t27 101v356q0 122 94 213q-94 91 -94 213v357q0 77 -25.5 103t-101.5 26z" />
<glyph unicode="~" horiz-adv-x="1169" d="M92 635q109 172 273 172q52 0 116.5 -22.5t114.5 -49t108 -49t99 -22.5q52 0 107 38.5t89 88.5l78 -209q-66 -75 -132.5 -118.5t-147.5 -43.5q-52 0 -112 22.5t-105.5 49t-104 49t-108.5 22.5q-42 0 -80.5 -23t-59.5 -46.5t-53 -67.5z" />
<glyph unicode="&#xa1;" horiz-adv-x="430" d="M92 0v979h246v-979h-246zM92 1122v254h246v-254h-246z" />
<glyph unicode="&#xa2;" horiz-adv-x="1124" d="M51 690q0 182 114 324.5t292 179.5v250h243v-250q131 -32 230.5 -122.5t142.5 -217.5h-264q-76 121 -234 121q-119 0 -198.5 -82.5t-79.5 -202.5t79.5 -203.5t198.5 -83.5q75 0 137 31t99 92h262q-41 -128 -140.5 -218.5t-232.5 -121.5v-254h-243v252 q-179 41 -292.5 181.5t-113.5 324.5z" />
<glyph unicode="&#xa3;" horiz-adv-x="1103" d="M96 1059h119q0 -21 17 -32t44 -11q56 0 56 37q0 20 -22.5 33.5t-55 23t-64.5 23.5t-54.5 44t-22.5 76q0 62 48 97.5t113 35.5q64 0 110 -36.5t46 -94.5h-115q-1 13 -13 24t-23 11q-43 0 -43 -33q0 -18 22.5 -30t55 -22.5t64.5 -25t54.5 -45.5t22.5 -75 q0 -67 -55.5 -108.5t-123.5 -41.5q-69 0 -124.5 41.5t-55.5 108.5zM504 918v458h119q107 -237 116 -254l4 -8q11 21 39.5 86.5t51.5 120.5l22 55h119v-458h-109v210l-69 -153h-45q-24 0 -41.5 6.5t-30.5 22.5t-19.5 28.5t-17.5 38.5l-31 64v-217h-108z" />
<glyph unicode="&#xa8;" horiz-adv-x="673" d="M51 1124v254h246v-254h-246zM377 1124v254h246v-254h-246z" />
<glyph unicode="&#xa9;" horiz-adv-x="1529" d="M51 688q0 145 56.5 277.5t152 228.5t227.5 152.5t277 56.5q146 0 278 -56.5t228 -152.5t152.5 -228t56.5 -278q0 -145 -56.5 -277t-152.5 -227.5t-228.5 -152t-277.5 -56.5t-277 56.5t-227.5 152t-152 227.5t-56.5 277zM219 688q0 -149 72.5 -274.5t198 -198t274.5 -72.5 t275 72.5t199 198t73 274.5t-73 275t-199 199t-275 73t-274.5 -73t-198 -199t-72.5 -275zM375 688q0 161 114.5 275t274.5 114q127 0 229.5 -72.5t143.5 -191.5h-199q-27 44 -74 68t-100 24q-91 0 -149 -62.5t-58 -154.5q0 -91 58 -153t149 -62q54 0 101 24.5t73 69.5h199 q-41 -120 -143.5 -193t-229.5 -73q-160 0 -274.5 113.5t-114.5 273.5z" />
<glyph unicode="&#xab;" horiz-adv-x="845" d="M92 688l393 514l-213 -514l213 -514zM403 688l392 514l-211 -514l211 -514z" />
<glyph unicode="&#xac;" horiz-adv-x="1366" d="M0 489v232h1366v-721h-233v489h-1133z" />
<glyph unicode="&#xad;" horiz-adv-x="669" d="M49 410v233h580v-233h-580z" />
<glyph unicode="&#xae;" horiz-adv-x="647" d="M76 1149q0 103 72.5 175.5t175.5 72.5t175 -72.5t72 -175.5t-72 -175.5t-175 -72.5t-175.5 72.5t-72.5 175.5zM135 1149q0 -79 54.5 -133.5t134.5 -54.5t134 54.5t54 133.5t-54 133.5t-134 54.5t-134.5 -54.5t-54.5 -133.5zM231 1024v250h113q39 0 64.5 -26.5t25.5 -65.5 q0 -53 -53 -80h-2l8 -8q40 -46 64 -70h-78l-51 59q-11 11 -19 11q-14 0 -14 -19v-51h-58zM289 1141q8 8 28 8h27q12 0 21.5 9.5t9.5 23.5t-9 25.5t-22 11.5h-55v-78z" />
<glyph unicode="&#xaf;" horiz-adv-x="5699" d="M22 610.5q0 91.5 64 157.5l399 410q35 38 93 45l-238 237l1231 -264q67 -13 112 -61q65 -65 65 -157t-65 -157l-399 -409q-42 -42 -92 -45l238 -240l-1231 264q-67 13 -113 62q-64 66 -64 157.5zM552 1069q0 -65 46 -111l561 -561l12 11q46 46 46 111.5t-46 111.5 l-561 561l-12 -12q-46 -46 -46 -111zM1974 688v643h162v-186h301q118 0 209.5 -68.5t122.5 -177.5q31 109 123.5 176.5t210.5 67.5h170q113 0 202.5 -61.5t124.5 -163.5q35 102 124.5 163.5t203.5 61.5h170q101 0 184.5 -51t126.5 -136q8 78 68 133.5t139 55.5h639v186h164 v-186h260v-156h-260v-301q0 -26 16.5 -43.5t42.5 -17.5h201v-156h-207q-89 0 -153 64t-64 153v301h-633q-23 0 -37 -14.5t-14 -36.5q0 -23 14.5 -38t36.5 -15h334q88 0 149.5 -59.5t61.5 -145.5t-61.5 -147.5t-149.5 -61.5h-493v156h489q22 0 36.5 14.5t14.5 36.5 t-15.5 37.5t-35.5 15.5h-336q-53 0 -98.5 24t-73.5 66v-14q0 -142 -100.5 -239t-245.5 -97h-170q-115 0 -204.5 62t-123.5 163q-36 -101 -124.5 -163t-202.5 -62h-170q-119 0 -211 67.5t-123 174.5q-29 -108 -121 -175t-213 -67h-244q-89 0 -153 64t-64 153zM2003 0v301h45 v-39q37 43 98 43q76 0 119 -65q43 65 121 65q59 0 101 -41.5t42 -101.5v-162h-47v162q0 41 -28 69.5t-68 28.5t-69 -28.5t-29 -69.5v-162h-45v162q0 41 -28.5 69.5t-68.5 28.5q-41 0 -69.5 -28.5t-28.5 -69.5v-162h-45zM2136 702q0 -34 21 -55.5t55 -21.5h223q78 0 131 51 t53 131q0 79 -52.5 131.5t-129.5 52.5h-301v-289zM2562 152q0 62 44.5 105.5t107.5 43.5h73q63 0 107.5 -43.5t44.5 -105.5q0 -63 -44.5 -107.5t-107.5 -44.5h-73q-63 0 -107.5 44.5t-44.5 107.5zM2607 152q0 -44 32 -75.5t75 -31.5h73q44 0 75.5 31.5t31.5 75.5 q0 43 -31.5 73.5t-75.5 30.5h-73q-43 0 -75 -31t-32 -73zM2918 807q0 -78 54 -129t131 -51h170q76 0 129 51t53 129q0 80 -53 132t-129 52h-170q-77 0 -131 -52t-54 -132zM2978 86v301h45v-86h147q62 0 107 -44t45 -105q0 -63 -45 -107.5t-107 -44.5h-106q-40 0 -63 25.5 t-23 60.5zM3023 86q0 -41 41 -41h106q43 0 75 31.5t32 75.5q0 42 -32 73t-75 31h-147v-170zM3375 0v301h45v-301h-45zM3375 342v45h45v-45h-45zM3490 0v387h45v-387h-45zM3590 152q0 61 44 105t106 44h61q63 0 107.5 -43.5t44.5 -105.5v-23h-316q8 -35 37 -59.5t66 -24.5h67 q65 0 86 41h51q-14 -39 -51 -62.5t-86 -23.5h-67q-62 0 -106 44.5t-44 107.5zM3637 174h269q-8 35 -37.5 58.5t-67.5 23.5h-61q-37 0 -66.5 -23.5t-36.5 -58.5zM3744 807q0 -78 54 -129t130 -51h170q76 0 129 51t53 129q0 80 -53 132t-129 52h-170q-77 0 -130.5 -52 t-53.5 -132zM3940 334v6h54v-6h-21v-49h-10v49h-23zM4002 285v55h12l21 -45l22 45h12v-55h-8v45h-2l-20 -45h-6l-23 45v-45h-8z" />
<glyph unicode="&#xb0;" horiz-adv-x="612" d="M92 1245q0 88 62.5 150.5t150.5 62.5t151.5 -62t63.5 -151t-63 -152t-152 -63t-151 63t-62 152zM213 1245q0 -38 27 -66t65 -28t66 28t28 66t-28.5 65t-65.5 27t-64.5 -27.5t-27.5 -64.5z" />
<glyph unicode="&#xb1;" horiz-adv-x="1204" d="M92 0v244h1018v-244h-1018zM92 743v246h387v387h246v-387h387v-246h-387v-389h-246v389h-387z" />
<glyph unicode="&#xb4;" horiz-adv-x="641" d="M51 1087l221 289h318l-330 -289h-209z" />
<glyph unicode="&#xb6;" horiz-adv-x="1142" d="M92 989q0 160 112 273.5t273 113.5h574v-139h-144v-1237h-151v1237h-125v-1237h-154v604q-160 0 -272.5 112.5t-112.5 272.5z" />
<glyph unicode="&#xb7;" horiz-adv-x="538" d="M92 598q0 74 51 127t125 53t126 -53t52 -127q0 -73 -50.5 -126.5t-123.5 -53.5q-78 0 -129 50.5t-51 129.5z" />
<glyph unicode="&#xbb;" horiz-adv-x="845" d="M51 174l211 514l-211 514l391 -514zM360 174l213 514l-213 514l394 -514z" />
<glyph unicode="&#xbf;" horiz-adv-x="1024" d="M51 412q0 71 20 132.5t51.5 105.5t70.5 81.5t77.5 67.5t70 56t51.5 54t20 56v61h245v-47q0 -72 -20 -130.5t-51.5 -97t-70 -70.5t-77 -59.5t-70 -56t-51.5 -67t-20 -86.5q0 -94 60.5 -153.5t154.5 -59.5t154.5 59.5t60.5 153.5v47h246v-47q0 -124 -63 -227.5 t-168.5 -161.5t-229.5 -58t-229.5 58t-168.5 161.5t-63 227.5zM412 1122v254h245v-254h-245z" />
<glyph unicode="&#xc0;" horiz-adv-x="1417" d="M51 0l522 1376h271l522 -1376h-272l-113 295h-319q-222 0 -285 -160l-53 -135h-273zM281 1722h315l223 -288h-209zM516 508q46 29 131 29h242l-180 479z" />
<glyph unicode="&#xc1;" horiz-adv-x="1417" d="M51 0l522 1376h271l522 -1376h-272l-113 295h-319q-222 0 -285 -160l-53 -135h-273zM516 508q46 29 131 29h242l-180 479zM582 1434l221 288h317l-329 -288h-209z" />
<glyph unicode="&#xc2;" horiz-adv-x="7370" d="M21 627.5q0 60.5 40 101.5l261 266q26 26 61 29l-156 154l799 -170q39 -9 74 -39q40 -43 40 -103.5t-40 -101.5l-260 -266q-26 -26 -60 -29l154 -154l-799 170q-39 9 -74 39q-40 43 -40 103.5zM364 924.5q0 -41.5 31 -72.5l365 -363l6 7q31 31 31 72.5t-31 70.5l-363 365 l-8 -7q-31 -31 -31 -72.5zM1303 561v465h118v-135h217q86 0 152 -49.5t88 -128.5q23 78 89.5 127t152.5 49h123q83 0 147.5 -44.5t89.5 -117.5q27 73 91.5 117.5t146.5 44.5h123q73 0 133.5 -36.5t91.5 -98.5q6 59 48.5 98t100.5 39h463v135h119v-135h188v-113h-188v-217 q0 -20 12 -32.5t31 -12.5h145v-113h-149q-65 0 -111.5 46t-46.5 112v217h-459q-15 0 -25.5 -11t-10.5 -26q0 -17 10.5 -28t25.5 -11h244q62 0 107 -43t45 -104q0 -63 -45 -107.5t-107 -44.5h-358v113h354q15 0 26 11t11 26t-11.5 26t-25.5 11h-244q-38 0 -71 17.5t-54 47.5 v-8q0 -104 -72 -174t-177 -70h-123q-82 0 -146.5 44.5t-91.5 117.5q-25 -73 -89.5 -117.5t-147.5 -44.5h-123q-86 0 -152 49.5t-88 127.5q-23 -79 -89.5 -128t-152.5 -49h-178q-65 0 -111 46t-46 112zM1421 573q0 -28 15 -43.5t43 -15.5h159q55 0 93 37t38 94 q0 58 -37.5 96.5t-93.5 38.5h-217v-207zM1987 647q0 -57 39 -94t94 -37h123q56 0 94.5 36.5t38.5 94.5t-38.5 94.5t-94.5 36.5h-123q-55 0 -94 -37t-39 -94zM2585 647q0 -58 38.5 -94.5t94.5 -36.5h123q56 0 94.5 36.5t38.5 94.5t-38.5 94.5t-94.5 36.5h-123 q-56 0 -94.5 -36.5t-38.5 -94.5zM4098 403v488h72v-64q62 68 157 68q60 0 111.5 -27.5t83.5 -76.5q32 49 83.5 76.5t111.5 27.5q95 0 162 -67t67 -162v-263h-74v263q0 65 -45.5 111t-109.5 46q-66 0 -112 -46t-46 -111v-263h-74v263q0 65 -46 111t-112 46q-64 0 -109.5 -46 t-45.5 -111v-263h-74zM4997 647q0 100 71.5 172t172.5 72h119q100 0 171.5 -72t71.5 -172q0 -101 -71.5 -172.5t-171.5 -71.5h-119q-101 0 -172.5 71.5t-71.5 172.5zM5069 647q0 -71 50.5 -121.5t121.5 -50.5h119q70 0 120 50.5t50 121.5t-50 120.5t-120 49.5h-119 q-71 0 -121.5 -50t-50.5 -120zM5663 541v485h71v-135h238q100 0 172 -72t72 -172q0 -101 -72 -172.5t-172 -71.5h-172q-64 0 -100.5 41.5t-36.5 96.5zM5734 541q0 -27 16.5 -46.5t49.5 -19.5h172q70 0 120 50.5t50 121.5t-50 120.5t-120 49.5h-238v-276zM6289 403v488h72 v-488h-72zM6289 954v72h72v-72h-72zM6472 403v623h71v-623h-71zM6617 647q0 100 71.5 172t172.5 72h98q100 0 172 -72t72 -172v-37h-510q12 -58 59.5 -96.5t108.5 -38.5h106q47 0 85 17.5t55 50.5h84q-23 -63 -84 -101.5t-140 -38.5h-106q-101 0 -172.5 71.5t-71.5 172.5z M6693 682h434q-14 59 -60.5 97t-107.5 38h-98q-61 0 -108.5 -38t-59.5 -97zM7191 942v8h65v-8h-27v-61h-12v61h-26zM7266 881v69h15l26 -55l27 55h16v-69h-10q-2 0 -2 55l-25 -55h-10l-26 55v-55h-11z" />
<glyph unicode="&#xc3;" horiz-adv-x="1417" d="M51 0l522 1376h271l522 -1376h-272l-113 295h-319q-222 0 -285 -160l-53 -135h-273zM332 1421q5 95 62.5 160.5t150.5 65.5q74 0 166.5 -36t128.5 -36q71 0 94 80h151q-8 -45 -15.5 -74t-23.5 -63t-37 -53.5t-56.5 -32.5t-82.5 -13q-50 0 -161 39t-146 39 q-29 0 -53.5 -23.5t-24.5 -52.5h-153zM516 508q46 29 131 29h242l-180 479z" />
<glyph unicode="&#xc8;" horiz-adv-x="1146" d="M92 0v1376h963v-241h-709v-383q60 57 178 57h531v-242h-531q-76 0 -127 -50.5t-51 -127.5v-147h709v-242h-963zM246 1722h315l223 -288h-209z" />
<glyph unicode="&#xc9;" horiz-adv-x="1146" d="M92 0v1376h963v-241h-709v-383q60 57 178 57h531v-242h-531q-76 0 -127 -50.5t-51 -127.5v-147h709v-242h-963zM401 1434l222 288h317l-330 -288h-209z" />
<glyph unicode="&#xcc;" horiz-adv-x="499" d="M-188 1716h315l223 -289h-209zM123 0v1376h254v-1376h-254z" />
<glyph unicode="&#xcd;" horiz-adv-x="499" d="M123 0v1376h254v-1376h-254zM150 1427l221 289h317l-330 -289h-208z" />
<glyph unicode="&#xd1;" horiz-adv-x="1318" d="M92 0v1376h283l583 -1079l15 -25v1104h254v-1376h-183q-114 0 -185.5 49.5t-129.5 155.5l-383 702v-907h-254zM272 1421q5 95 62.5 160.5t150.5 65.5q74 0 166.5 -36t128.5 -36q71 0 94 80h152q-8 -45 -15.5 -74t-23.5 -63t-37 -53.5t-56.5 -32.5t-82.5 -13 q-51 0 -161 39t-146 39q-29 0 -53.5 -23.5t-24.5 -52.5h-154z" />
<glyph unicode="&#xd2;" horiz-adv-x="1529" d="M51 688q0 145 57 277t153 228t228 153t277 57t277 -57t227.5 -153t152 -228t56.5 -277t-56.5 -277t-152 -227.5t-227.5 -152t-277 -56.5t-277 56.5t-228 152t-153 227.5t-57 277zM307 688q0 -200 130 -335.5t329 -135.5t329 135.5t130 335.5t-130 336.5t-329 136.5 t-329 -136.5t-130 -336.5zM342 1743h315l224 -289h-209z" />
<glyph unicode="&#xd3;" horiz-adv-x="1529" d="M51 688q0 145 57 277t153 228t228 153t277 57t277 -57t227.5 -153t152 -228t56.5 -277t-56.5 -277t-152 -227.5t-227.5 -152t-277 -56.5t-277 56.5t-228 152t-153 227.5t-57 277zM307 688q0 -200 130 -335.5t329 -135.5t329 135.5t130 335.5t-130 336.5t-329 136.5 t-329 -136.5t-130 -336.5zM633 1448l221 289h317l-329 -289h-209z" />
<glyph unicode="&#xd4;" horiz-adv-x="2361" d="M20 470q0 124 86 212l537 551q51 51 125 61l-319 320l1654 -357q90 -16 152 -81q86 -88 86 -211.5t-86 -212.5l-537 -551q-54 -54 -125 -60l320 -321l-1655 356q-89 16 -152 82q-86 88 -86 212zM734 1087q0 -87 61 -149l755 -756q4 7 17 15q61 63 61 150t-61 149 l-756 755l-16 -14q-61 -63 -61 -150zM1872 119v10h65v-10h-26v-60h-13v60h-26zM1946 59v70h16l25 -55l26 55h15v-70h-11v56l-26 -56h-9l-26 56v-56h-10z" />
<glyph unicode="&#xd5;" horiz-adv-x="1529" d="M51 688q0 145 57 277t153 228t228 153t277 57t277 -57t227.5 -153t152 -228t56.5 -277t-56.5 -277t-152 -227.5t-227.5 -152t-277 -56.5t-277 56.5t-228 152t-153 227.5t-57 277zM307 688q0 -200 130 -335.5t329 -135.5t329 135.5t130 335.5t-130 336.5t-329 136.5 t-329 -136.5t-130 -336.5zM389 1442q5 95 62.5 160t150.5 65q74 0 166.5 -36t128.5 -36q71 0 94 80h152q-8 -45 -15.5 -74t-23.5 -63t-37 -53t-56.5 -32t-82.5 -13q-50 0 -160.5 39t-146.5 39q-29 0 -53.5 -23.5t-24.5 -52.5h-154z" />
<glyph unicode="&#xd7;" horiz-adv-x="1228" d="M92 178l342 342l-342 342l180 178l342 -340l342 340l181 -178l-342 -342l342 -342l-181 -180l-342 342l-342 -342z" />
<glyph unicode="&#xd8;" horiz-adv-x="1529" d="M51 688q0 145 57 277t153 228t228 153t277 57q240 0 436 -152l133 140l101 -95l-133 -139q176 -205 176 -469q0 -145 -56.5 -277t-152 -227.5t-227.5 -152t-277 -56.5q-241 0 -440 152l-133 -141l-103 96l135 141q-174 200 -174 465zM307 688q0 -163 88 -287l641 674 q-116 86 -270 86q-199 0 -329 -136.5t-130 -336.5zM494 303q116 -86 272 -86q199 0 329 135.5t130 335.5q0 164 -92 289z" />
<glyph unicode="&#xd9;" horiz-adv-x="1339" d="M92 557v819h254v-831q0 -133 95 -228.5t229 -95.5q133 0 228 95t95 229v831h254v-819q0 -117 -46 -223.5t-123.5 -184t-184 -123.5t-223.5 -46q-156 0 -289 77.5t-211 210.5t-78 289zM287 1698h315l223 -289h-209z" />
<glyph unicode="&#xda;" horiz-adv-x="1339" d="M92 557v819h254v-831q0 -133 95 -228.5t229 -95.5q133 0 228 95t95 229v831h254v-819q0 -117 -46 -223.5t-123.5 -184t-184 -123.5t-223.5 -46q-156 0 -289 77.5t-211 210.5t-78 289zM504 1409l221 289h317l-329 -289h-209z" />
<glyph unicode="&#xdd;" horiz-adv-x="1388" d="M51 1376h275l264 -649q18 -43 50.5 -67t66.5 -30.5t84 -6.5l276 753h270l-503 -1376h-271l142 385q-117 11 -195 62.5t-123 154.5zM444 1427l222 289h317l-330 -289h-209z" />
<glyph unicode="&#xe0;" horiz-adv-x="1222" d="M51 477q0 141 68.5 261t187.5 189.5t260 67.5q62 0 114.5 -13.5t80.5 -29.5t53.5 -29.5t40.5 -13.5v45h246v-694q0 -64 69 -133l-172 -174q-2 2 -20 21t-29.5 30.5t-28.5 23t-28 11.5q-21 0 -49 -12.5t-56.5 -27.5t-85.5 -27.5t-127 -12.5q-145 0 -265 67.5t-189.5 186.5 t-69.5 264zM238 1376h315l223 -289h-209zM295 477q0 -126 77.5 -206.5t202.5 -80.5q52 0 111.5 22t105.5 40.5t76 11.5q-12 33 -12 101v313q-46 4 -127.5 44t-153.5 40q-125 0 -202.5 -80t-77.5 -205z" />
<glyph unicode="&#xe1;" horiz-adv-x="1222" d="M51 477q0 141 68.5 261t187.5 189.5t260 67.5q62 0 114.5 -13.5t80.5 -29.5t53.5 -29.5t40.5 -13.5v45h246v-694q0 -64 69 -133l-172 -174q-2 2 -20 21t-29.5 30.5t-28.5 23t-28 11.5q-21 0 -49 -12.5t-56.5 -27.5t-85.5 -27.5t-127 -12.5q-145 0 -265 67.5t-189.5 186.5 t-69.5 264zM295 477q0 -126 77.5 -206.5t202.5 -80.5q52 0 111.5 22t105.5 40.5t76 11.5q-12 33 -12 101v313q-46 4 -127.5 44t-153.5 40q-125 0 -202.5 -80t-77.5 -205zM367 1087l221 289h317l-330 -289h-208z" />
<glyph unicode="&#xe3;" horiz-adv-x="1222" d="M51 477q0 141 68.5 261t187.5 189.5t260 67.5q62 0 114.5 -13.5t80.5 -29.5t53.5 -29.5t40.5 -13.5v45h246v-694q0 -64 69 -133l-172 -174q-2 2 -20 21t-29.5 30.5t-28.5 23t-28 11.5q-21 0 -49 -12.5t-56.5 -27.5t-85.5 -27.5t-127 -12.5q-145 0 -265 67.5t-189.5 186.5 t-69.5 264zM207 1143q5 95 62.5 160t150.5 65q74 0 166.5 -36t128.5 -36q71 0 94 80h152q-10 -57 -21 -92t-34 -71.5t-63 -54t-98 -17.5q-51 0 -161 39t-146 39q-29 0 -53.5 -23.5t-24.5 -52.5h-153zM295 477q0 -126 77.5 -206.5t202.5 -80.5q52 0 111.5 22t105.5 40.5 t76 11.5q-12 33 -12 101v313q-46 4 -127.5 44t-153.5 40q-125 0 -202.5 -80t-77.5 -205z" />
<glyph unicode="&#xe8;" d="M51 477q0 143 70.5 262t190.5 186.5t263 67.5q135 0 255.5 -64t195 -179t74.5 -252q0 -84 -10 -127h-670q-26 0 -45 -13.5t-19 -38.5q0 -14 11 -32q32 -47 89.5 -72t118.5 -25q132 0 209 91h277q-61 -150 -192.5 -236t-293.5 -86q-143 0 -263 68t-190.5 187.5 t-70.5 262.5zM174 1376h315l224 -289h-209zM297 537q57 47 152 47h385q-28 84 -95 131t-164 47q-107 0 -186.5 -60.5t-91.5 -164.5z" />
<glyph unicode="&#xe9;" d="M51 477q0 143 70.5 262t190.5 186.5t263 67.5q135 0 255.5 -64t195 -179t74.5 -252q0 -84 -10 -127h-670q-26 0 -45 -13.5t-19 -38.5q0 -14 11 -32q32 -47 89.5 -72t118.5 -25q132 0 209 91h277q-61 -150 -192.5 -236t-293.5 -86q-143 0 -263 68t-190.5 187.5 t-70.5 262.5zM297 537q57 47 152 47h385q-28 84 -95 131t-164 47q-107 0 -186.5 -60.5t-91.5 -164.5zM379 1087l221 289h318l-330 -289h-209z" />
<glyph unicode="&#xec;" horiz-adv-x="491" d="M-170 1376h315l224 -289h-209zM123 0v954h246v-954h-246z" />
<glyph unicode="&#xed;" horiz-adv-x="491" d="M123 0v954h246v-954h-246zM129 1087l221 289h318l-330 -289h-209z" />
<glyph unicode="&#xf1;" d="M92 0v954h246v-51q19 0 50.5 14.5t63.5 31.5t81 31.5t98 14.5q113 2 209.5 -49t157.5 -152t61 -231v-563h-244v553q0 90 -57 151.5t-146 61.5q-36 0 -84 -24.5t-98 -49t-92 -24.5v-668h-246zM172 1143q5 95 62.5 160t150.5 65q74 0 166.5 -36t128.5 -36q71 0 94 80h152 q-8 -45 -15.5 -74t-23.5 -63t-37 -53t-56.5 -32t-82.5 -13q-51 0 -162 39t-146 39q-29 0 -53 -23.5t-24 -52.5h-154z" />
<glyph unicode="&#xf2;" d="M51 477q0 140 71.5 259t192 188t260.5 69q139 0 260 -69t193 -188.5t72 -258.5q0 -140 -72 -259.5t-193 -189t-260 -69.5q-140 0 -261 69.5t-192 189t-71 259.5zM145 1376h316l223 -289h-209zM295 477q0 -121 80.5 -204t199.5 -83q120 0 199.5 83.5t79.5 203.5 q0 119 -80 202t-199 83q-120 0 -200 -82t-80 -203z" />
<glyph unicode="&#xf3;" d="M51 477q0 140 71.5 259t192 188t260.5 69q139 0 260 -69t193 -188.5t72 -258.5q0 -140 -72 -259.5t-193 -189t-260 -69.5q-140 0 -261 69.5t-192 189t-71 259.5zM295 477q0 -121 80.5 -204t199.5 -83q120 0 199.5 83.5t79.5 203.5q0 119 -80 202t-199 83q-120 0 -200 -82 t-80 -203zM428 1087l221 289h318l-330 -289h-209z" />
<glyph unicode="&#xf5;" d="M51 477q0 140 71.5 259t192 188t260.5 69q139 0 260 -69t193 -188.5t72 -258.5q0 -140 -72 -259.5t-193 -189t-260 -69.5q-140 0 -261 69.5t-192 189t-71 259.5zM188 1143q5 95 62.5 160t150.5 65q74 0 166.5 -36t128.5 -36q72 0 95 80h151q-8 -45 -15.5 -74t-23.5 -63 t-37 -53t-56.5 -32t-82.5 -13q-51 0 -161 39t-146 39q-29 0 -53.5 -23.5t-24.5 -52.5h-154zM295 477q0 -121 80.5 -204t199.5 -83q120 0 199.5 83.5t79.5 203.5q0 119 -80 202t-199 83q-120 0 -200 -82t-80 -203z" />
<glyph unicode="&#xf7;" horiz-adv-x="1236" d="M92 406v243h1053v-243h-1053zM494 0v254h245v-254h-245zM494 799v254h245v-254h-245z" />
<glyph unicode="&#xf9;" horiz-adv-x="1187" d="M92 414v540h246v-553q0 -89 55 -148.5t144 -59.5q62 0 142 38t130 43v680h244v-686q0 -10 1.5 -20t2.5 -17.5t5.5 -16t6.5 -13.5t9 -14t9 -12t11.5 -12t11.5 -11t13.5 -12.5t13.5 -12.5l-168 -168q-1 1 -20.5 21.5t-30.5 31t-29 22t-31 11.5q-19 0 -52.5 -13.5 t-67.5 -29.5t-89 -29.5t-112 -13.5q-190 0 -317.5 132t-127.5 323zM209 1376h315l224 -289h-209z" />
<glyph unicode="&#xfa;" horiz-adv-x="1187" d="M92 414v540h246v-553q0 -89 55 -148.5t144 -59.5q62 0 142 38t130 43v680h244v-686q0 -10 1.5 -20t2.5 -17.5t5.5 -16t6.5 -13.5t9 -14t9 -12t11.5 -12t11.5 -11t13.5 -12.5t13.5 -12.5l-168 -168q-1 1 -20.5 21.5t-30.5 31t-29 22t-31 11.5q-19 0 -52.5 -13.5 t-67.5 -29.5t-89 -29.5t-112 -13.5q-190 0 -317.5 132t-127.5 323zM356 1087l222 289h317l-330 -289h-209z" />
<glyph unicode="&#xfd;" horiz-adv-x="1228" d="M51 954h264l260 -671q16 -46 46 -56l292 727h265q-396 -968 -476 -1163q-85 -213 -348 -213h-45v246q70 0 104.5 10.5t50.5 30.5t38 72l24 63q-56 23 -106 75.5t-72 110.5zM377 1087l221 289h317l-329 -289h-209z" />
<glyph unicode="&#x2c6;" horiz-adv-x="819" d="M51 1079l236 299h245l236 -299h-199l-159 201l-158 -201h-201z" />
<glyph unicode="&#x2dc;" horiz-adv-x="856" d="M51 1143q5 95 62.5 160t150.5 65q74 0 166.5 -36t128.5 -36q71 0 94 80h152q-8 -45 -15.5 -74t-23.5 -63t-37 -53t-56.5 -32t-82.5 -13q-50 0 -160.5 39t-146.5 39q-29 0 -53.5 -23.5t-24.5 -52.5h-154z" />
<glyph unicode="&#x2000;" horiz-adv-x="871" />
<glyph unicode="&#x2001;" horiz-adv-x="1743" />
<glyph unicode="&#x2002;" horiz-adv-x="871" />
<glyph unicode="&#x2003;" horiz-adv-x="1743" />
<glyph unicode="&#x2004;" horiz-adv-x="581" />
<glyph unicode="&#x2005;" horiz-adv-x="435" />
<glyph unicode="&#x2006;" horiz-adv-x="290" />
<glyph unicode="&#x2007;" horiz-adv-x="290" />
<glyph unicode="&#x2008;" horiz-adv-x="217" />
<glyph unicode="&#x2009;" horiz-adv-x="348" />
<glyph unicode="&#x200a;" horiz-adv-x="96" />
<glyph unicode="&#x2010;" horiz-adv-x="669" d="M49 410v233h580v-233h-580z" />
<glyph unicode="&#x2011;" horiz-adv-x="669" d="M49 410v233h580v-233h-580z" />
<glyph unicode="&#x2012;" horiz-adv-x="669" d="M49 410v233h580v-233h-580z" />
<glyph unicode="&#x2013;" horiz-adv-x="1236" d="M92 410v233h1053v-233h-1053z" />
<glyph unicode="&#x2014;" horiz-adv-x="1662" d="M0 410v233h1663v-233h-1663z" />
<glyph unicode="&#x2018;" horiz-adv-x="348" d="M51 881v258q0 111 62 167.5t180 69.5v-135q-46 -2 -76.5 -27t-30.5 -81h111v-252h-246z" />
<glyph unicode="&#x2019;" horiz-adv-x="348" d="M51 1122v254h246v-254q0 -118 -61 -175t-181 -66v133q60 4 83.5 29.5t23.5 78.5h-111z" />
<glyph unicode="&#x201a;" horiz-adv-x="430" d="M92 0v254h246v-254q0 -117 -61.5 -175t-180.5 -67v133q55 3 81 29t26 80h-111z" />
<glyph unicode="&#x201c;" horiz-adv-x="686" d="M51 881v258q0 221 242 237v-135q-107 -4 -107 -108h111v-252h-246zM391 881v252q0 121 61 178t181 65v-135q-62 -3 -85.5 -24t-23.5 -84h111v-252h-244z" />
<glyph unicode="&#x201d;" horiz-adv-x="688" d="M51 1122v254h246v-260q0 -215 -242 -235v133q46 2 76.5 27t30.5 81h-111zM391 1122v254h246v-254q0 -118 -61 -175t-181 -66v133q48 -2 77.5 24.5t29.5 83.5h-111z" />
<glyph unicode="&#x201e;" horiz-adv-x="753" d="M92 0v254h246v-254q0 -117 -61.5 -175t-180.5 -67v133q55 3 81 29t26 80h-111zM416 0v254h246v-254q0 -117 -61.5 -175t-180.5 -67v133q54 3 80 29t26 80h-110z" />
<glyph unicode="&#x2022;" horiz-adv-x="763" d="M123 575q0 107 77 183t183 76t182 -76.5t76 -182.5t-76 -182t-182 -76t-183 75.5t-77 182.5z" />
<glyph unicode="&#x2026;" horiz-adv-x="1247" d="M51 0v254h246v-254h-246zM500 0v254h245v-254h-245zM950 0v254h246v-254h-246z" />
<glyph unicode="&#x202f;" horiz-adv-x="348" />
<glyph unicode="&#x2039;" horiz-adv-x="483" d="M92 565v246l299 236v-199l-201 -160l201 -158v-200z" />
<glyph unicode="&#x203a;" horiz-adv-x="483" d="M92 330v198l201 160l-201 158v201l299 -236v-246z" />
<glyph unicode="&#x205f;" horiz-adv-x="435" />
<glyph unicode="&#x2122;" horiz-adv-x="1069" d="M51 1270v106h377v-106h-82q-24 0 -38.5 -16t-14.5 -40v-296h-109v303q0 33 19 49h-152zM469 918v458h119q98 -215 117 -254l4 -8q11 21 39 86.5t50 120.5l23 55h119v-458h-109v210l-69 -153h-45q-24 0 -41.5 6.5t-30.5 22.5t-19.5 28.5t-17.5 38.5l-30 64v-217h-109z" />
<glyph unicode="&#x25fc;" horiz-adv-x="952" d="M0 0v952h952v-952h-952z" />
</font>
</defs>
</svg>
