<?xml version="1.0" encoding="utf-8" ?><svg version="1.1" xmlns='http://www.w3.org/2000/svg'><defs><font id='font' horiz-adv-x="1000">
<font-face font-family="font" units-per-em="1000" x-height="466" bbox="-92,-258,3594,851" cap-height="672" ascent="760" descent="-240" />
<missing-glyph horiz-adv-x="230" d="" /><glyph unicode=" " d="" horiz-adv-x="230" />
<glyph unicode="!" d="M 45 672 L 165 672 L 165 194 L 45 194 L 45 672 Z M 45 124 L 165 124 L 165 0 L 45 0 L 45 124 Z" horiz-adv-x="210" />
<glyph unicode="&#x22;" d="M 51 425 C 50 427 48 435 46 448 C 43 460 40 474 37 489 C 34 503 31 516 29 528 C 26 540 25 546 25 548 L 25 672 L 145 672 L 145 548 C 145 546 143 540 141 528 C 138 516 135 503 132 489 C 129 474 126 460 124 448 C 121 435 119 427 119 425 L 51 425 Z M 212 425 C 211 427 209 435 207 448 C 204 460 201 474 198 489 C 195 503 192 516 190 528 C 187 540 186 546 186 548 L 186 672 L 306 672 L 306 548 C 306 546 304 540 302 528 C 299 516 296 503 293 489 C 290 474 287 460 285 448 C 282 435 280 427 280 425 L 212 425 Z" horiz-adv-x="331" />
<glyph unicode="#" d="M 90 484 L 214 484 L 259 672 L 368 672 L 323 484 L 405 484 L 450 672 L 560 672 L 515 484 L 604 484 L 604 377 L 490 377 L 464 265 L 559 265 L 559 158 L 439 158 L 402 0 L 292 0 L 329 158 L 247 158 L 210 0 L 101 0 L 138 158 L 45 158 L 45 265 L 163 265 L 189 377 L 90 377 L 90 484 Z M 272 265 L 354 265 L 380 377 L 298 377 L 272 265 Z" horiz-adv-x="649" />
<glyph unicode="$" d="M 231 -8 C 204 -2 178 6 154 18 C 130 30 108 45 90 63 C 71 81 56 101 45 125 C 33 149 28 175 28 205 L 152 205 C 152 188 156 173 165 161 C 174 148 186 137 200 128 C 214 119 229 112 245 108 C 261 103 277 101 291 101 C 305 101 320 102 336 106 C 352 109 368 114 382 122 C 396 129 407 139 417 151 C 426 163 431 178 431 196 C 431 209 427 220 420 230 C 412 239 402 247 390 253 C 378 259 363 265 347 270 C 330 274 312 279 294 284 C 266 290 238 298 210 306 C 182 314 156 326 132 341 C 108 356 89 375 74 399 C 59 422 52 452 52 490 C 52 517 56 541 66 563 C 76 584 89 603 105 619 C 121 635 140 648 162 658 C 184 668 207 675 231 680 L 231 754 L 351 754 L 351 679 C 372 674 393 667 413 657 C 433 647 450 636 466 622 C 482 608 494 591 504 572 C 514 553 519 532 519 509 L 394 509 C 392 519 387 528 379 536 C 371 544 362 550 352 555 C 342 560 331 564 320 567 C 308 569 298 571 290 571 C 278 571 266 569 253 567 C 239 564 227 559 216 553 C 204 547 195 539 187 529 C 179 519 176 508 176 494 C 176 482 179 472 185 464 C 191 456 199 449 210 443 C 220 437 233 431 247 427 C 261 423 277 419 294 415 C 322 407 351 400 382 392 C 412 384 440 372 466 357 C 492 342 513 323 530 299 C 546 275 555 243 555 205 C 555 175 549 149 538 125 C 526 101 511 80 492 62 C 473 44 451 29 427 17 C 403 5 377 -2 351 -8 L 351 -83 L 231 -83 L 231 -8 Z" horiz-adv-x="577" />
<glyph unicode="%" d="M 204 319 C 179 319 156 323 134 333 C 112 342 93 355 77 371 C 61 387 48 406 39 428 C 29 450 25 473 25 498 C 25 522 29 545 39 567 C 48 589 61 608 77 624 C 93 640 112 653 134 663 C 156 672 179 677 204 677 C 228 677 251 672 273 663 C 295 653 314 640 330 624 C 346 608 358 589 368 567 C 377 545 382 522 382 498 C 382 473 377 450 368 428 C 358 406 346 387 330 371 C 314 355 295 342 273 333 C 251 323 228 319 204 319 Z M 138 498 C 138 477 143 460 155 446 C 166 432 182 425 204 425 C 225 425 241 432 252 447 C 263 461 269 478 269 498 C 269 518 263 535 252 549 C 241 563 225 570 204 570 C 182 570 166 563 155 549 C 143 535 138 518 138 498 Z M 709 -3 C 684 -3 661 1 639 11 C 617 20 598 33 582 49 C 566 65 553 83 544 105 C 534 127 530 150 530 175 C 530 199 534 222 544 244 C 553 266 566 285 582 301 C 598 317 617 330 639 340 C 661 349 684 354 709 354 C 733 354 756 349 778 340 C 800 330 819 317 835 301 C 851 285 864 266 874 244 C 883 222 888 199 888 175 C 888 150 883 127 874 105 C 864 83 851 65 835 49 C 819 33 800 20 778 11 C 756 1 733 -3 709 -3 Z M 643 175 C 643 155 648 138 660 124 C 671 110 687 103 709 103 C 729 103 745 110 757 124 C 769 138 775 155 775 175 C 775 195 769 212 758 226 C 746 240 730 248 709 248 C 687 248 671 241 660 227 C 648 213 643 195 643 175 Z M 524 672 L 653 672 L 382 0 L 253 0 L 524 672 Z" horiz-adv-x="913" />
<glyph unicode="&#x26;" d="M 462 100 L 459 96 C 441 76 424 60 409 47 C 393 34 378 23 362 15 C 346 7 329 1 311 -2 C 293 -6 272 -8 248 -8 C 217 -8 189 -4 164 4 C 138 12 116 23 98 38 C 80 53 65 71 55 93 C 45 114 40 138 40 165 C 40 212 54 252 84 286 C 113 319 150 346 195 367 L 219 378 C 199 401 183 423 171 445 C 159 467 154 492 154 520 C 154 542 159 562 170 582 C 180 601 194 618 211 632 C 228 646 247 657 269 665 C 291 673 313 678 336 678 C 358 678 379 674 400 666 C 421 658 440 647 456 633 C 472 619 484 603 494 584 C 504 565 509 545 509 523 C 509 501 505 482 499 466 C 492 449 483 434 473 421 C 462 408 450 396 436 386 C 422 376 409 367 396 359 L 388 354 L 465 267 C 484 290 505 315 527 342 C 549 368 570 396 592 424 L 670 346 C 646 314 623 284 601 258 C 579 232 558 207 539 185 L 705 0 L 550 0 L 462 100 Z M 251 95 C 270 95 291 100 313 112 C 335 123 357 142 381 169 C 382 171 384 172 386 174 C 388 176 389 178 391 181 L 287 299 L 259 285 C 232 270 209 254 190 236 C 171 218 162 196 162 170 C 162 160 164 151 168 143 C 172 134 179 126 187 119 C 195 111 204 105 215 101 C 225 97 237 95 251 95 Z M 272 518 C 272 505 274 493 279 483 C 283 473 291 462 302 450 L 319 431 L 327 436 C 351 450 368 465 379 480 C 389 495 395 509 395 523 C 395 540 389 554 378 564 C 366 574 352 579 334 579 C 316 579 302 573 290 561 C 278 549 272 535 272 518 Z" horiz-adv-x="713" />
<glyph unicode="'" d="M 51 425 C 50 427 48 435 46 448 C 43 460 40 474 37 489 C 34 503 31 516 29 528 C 26 540 25 546 25 548 L 25 672 L 145 672 L 145 548 C 145 546 143 540 141 528 C 138 516 135 503 132 489 C 129 474 126 460 124 448 C 121 435 119 427 119 425 L 51 425 L 51 425 Z" horiz-adv-x="170" />
<glyph unicode="(" d="M 186 -111 C 140 -49 105 18 81 90 C 57 162 45 236 45 313 C 45 390 57 464 81 536 C 105 607 140 674 186 737 L 302 737 C 254 674 217 607 191 537 C 165 467 152 392 152 313 C 152 236 164 161 190 88 C 216 14 253 -51 302 -111 L 186 -111 L 186 -111 Z" horiz-adv-x="387" />
<glyph unicode=")" d="M 58 -111 C 106 -51 142 15 168 88 C 194 161 207 236 207 313 C 207 392 193 467 167 537 C 141 607 104 674 58 737 L 173 737 C 219 675 254 608 278 536 C 302 464 314 390 314 313 C 314 235 302 161 278 89 C 254 17 219 -49 173 -111 L 58 -111 L 58 -111 Z" horiz-adv-x="359" />
<glyph unicode="*" d="M 174 436 L 94 369 L 39 455 L 142 502 L 39 552 L 94 637 L 174 570 L 164 674 L 267 674 L 257 570 L 337 637 L 392 552 L 289 502 L 392 454 L 337 369 L 257 436 L 267 332 L 164 332 L 174 436 Z" horiz-adv-x="429" />
<glyph unicode="+" d="M 204 180 L 25 180 L 25 300 L 204 300 L 204 479 L 324 479 L 324 300 L 503 300 L 503 180 L 324 180 L 324 0 L 204 0 L 204 180 Z" horiz-adv-x="528" />
<glyph unicode="," d="M 27 -53 C 61 -51 79 -33 79 0 L 25 0 L 25 124 L 145 124 L 145 0 C 145 -40 134 -68 114 -86 C 93 -104 64 -114 27 -118 L 27 -53 Z" horiz-adv-x="170" />
<glyph unicode="-" d="M 24 314 L 307 314 L 307 200 L 24 200 L 24 314 Z" horiz-adv-x="327" />
<glyph unicode="." d="M 25 124 L 145 124 L 145 0 L 25 0 L 25 124 Z" horiz-adv-x="170" />
<glyph unicode="/" d="M 296 672 L 425 672 L 154 0 L 25 0 L 296 672 Z" horiz-adv-x="450" />
<glyph unicode="0" d="M 278 -20 C 246 -20 216 -14 188 -2 C 160 10 135 26 114 46 C 92 66 75 90 63 118 C 51 146 45 176 45 208 L 45 464 C 45 496 51 525 63 553 C 75 581 92 605 114 625 C 135 645 160 662 188 674 C 216 686 246 692 278 692 C 309 692 339 686 367 674 C 395 662 419 645 441 625 C 462 605 479 581 491 553 C 503 525 510 496 510 464 L 510 208 C 510 176 503 146 491 118 C 479 90 462 66 441 46 C 419 26 395 10 367 -2 C 339 -14 309 -20 278 -20 Z M 278 94 C 292 94 306 96 320 102 C 334 108 346 115 357 125 C 367 135 376 146 382 159 C 388 172 391 186 391 202 L 391 471 C 391 486 387 500 381 513 C 375 526 366 537 356 547 C 346 557 334 564 320 570 C 306 575 292 578 278 578 C 262 578 248 575 235 570 C 221 564 209 557 199 547 C 188 537 180 526 174 513 C 168 500 165 486 165 471 L 165 202 C 165 186 168 172 174 159 C 180 145 188 134 198 124 C 208 114 220 107 234 102 C 248 96 262 94 278 94 Z" horiz-adv-x="555" />
<glyph unicode="1" d="M 141 559 L 45 559 L 45 672 L 201 672 C 217 672 231 666 243 654 C 255 642 261 628 261 612 L 261 0 L 141 0 L 141 559 Z" horiz-adv-x="346" />
<glyph unicode="2" d="M 111 0 C 94 0 80 5 68 17 C 56 29 50 43 50 60 C 50 77 56 91 69 103 L 356 381 C 368 392 377 404 384 417 C 391 430 395 445 395 463 C 395 496 384 523 362 544 C 340 564 312 575 280 575 C 264 575 249 572 235 566 C 221 560 209 553 199 543 C 189 533 181 521 175 507 C 169 493 165 479 165 463 L 45 463 C 46 494 53 523 66 551 C 78 578 95 602 117 622 C 138 642 163 658 191 670 C 219 682 248 688 280 688 C 313 688 344 682 373 670 C 401 658 426 641 447 620 C 468 599 485 574 497 546 C 509 517 515 486 515 453 C 515 423 508 396 496 370 C 484 344 467 322 447 302 L 259 120 L 500 120 L 500 0 L 111 0 L 111 0 Z" horiz-adv-x="560" />
<glyph unicode="3" d="M 276 -20 C 242 -20 210 -13 182 -1 C 154 10 129 27 109 48 C 89 69 73 93 62 121 C 50 148 45 177 45 208 L 165 208 C 165 192 167 177 173 163 C 179 149 187 136 197 126 C 207 116 219 108 233 102 C 247 96 262 94 278 94 C 309 94 335 104 355 126 C 375 148 385 176 385 210 C 385 220 382 230 378 240 C 374 249 368 257 362 265 C 356 272 349 278 342 284 C 334 289 328 294 322 298 C 304 310 292 321 288 333 C 283 344 281 355 281 367 C 281 378 283 388 288 398 C 292 408 302 418 318 428 C 320 430 323 432 328 436 C 332 439 337 443 342 449 C 346 454 350 460 354 468 C 357 475 359 483 359 493 C 359 518 352 538 339 554 C 326 570 306 578 278 578 C 261 578 246 575 232 569 C 218 563 206 554 196 544 C 186 534 178 522 173 508 C 167 494 165 480 165 464 L 45 464 C 45 496 51 525 64 553 C 76 581 93 605 114 625 C 135 645 160 662 188 674 C 216 686 245 692 276 692 C 302 692 328 687 353 677 C 378 667 400 654 420 637 C 439 620 454 600 466 577 C 477 554 483 529 483 503 C 483 475 477 449 465 427 C 453 405 439 387 422 373 C 447 353 469 329 487 300 C 505 270 515 238 515 202 C 515 171 508 142 495 115 C 482 88 465 65 443 45 C 421 25 396 9 367 -2 C 338 -14 308 -20 276 -20 Z" horiz-adv-x="553" />
<glyph unicode="4" d="M 355 119 L 85 119 C 69 119 55 124 43 136 C 31 148 25 162 25 179 C 25 189 28 199 35 211 L 331 672 L 473 672 L 188 232 L 355 232 L 355 373 L 474 373 L 474 232 L 572 232 L 572 119 L 474 119 L 474 0 L 355 0 L 355 119 Z" horiz-adv-x="597" />
<glyph unicode="5" d="M 278 -20 C 246 -20 215 -14 187 -2 C 159 10 134 26 113 47 C 92 68 75 93 63 121 C 51 149 45 180 45 212 L 165 212 C 165 196 167 180 173 166 C 179 152 187 139 197 128 C 207 117 218 108 232 102 C 246 96 261 93 278 93 C 294 93 310 96 324 102 C 338 108 350 117 360 128 C 370 138 377 151 383 165 C 388 179 391 195 391 212 C 391 228 388 244 383 259 C 377 273 370 286 360 297 C 350 307 339 316 325 322 C 311 328 295 332 278 332 C 266 332 255 330 245 327 C 235 323 225 319 216 313 C 206 307 197 301 188 295 C 179 288 170 282 162 276 C 156 272 151 269 146 267 C 141 265 135 264 128 264 C 120 264 112 266 104 270 C 96 274 89 279 83 285 C 77 291 73 299 70 308 C 67 316 66 325 68 335 L 126 671 L 459 671 L 459 558 L 224 558 L 203 419 C 214 427 228 434 245 438 C 261 442 276 445 290 445 C 322 445 351 438 378 426 C 405 413 428 396 448 374 C 468 352 483 328 494 300 C 505 272 511 242 511 212 C 511 180 504 149 492 121 C 480 93 463 68 442 47 C 421 26 396 10 368 -2 C 340 -14 310 -20 278 -20 Z" horiz-adv-x="556" />
<glyph unicode="6" d="M 256 -20 C 224 -20 194 -14 166 -2 C 138 9 113 25 92 46 C 71 66 55 90 43 118 C 31 146 25 176 25 208 L 25 464 C 25 496 31 525 43 553 C 55 581 72 605 94 625 C 115 645 140 662 168 674 C 196 686 226 692 258 692 C 289 692 319 686 347 674 C 375 662 399 645 421 625 C 442 605 459 581 471 553 C 483 525 490 496 490 464 L 371 464 C 371 480 368 496 363 510 C 357 524 350 537 340 548 C 330 558 318 567 304 573 C 290 579 274 582 258 582 C 240 582 225 579 211 573 C 197 567 186 558 176 548 C 166 537 158 524 153 510 C 147 496 145 480 145 464 L 145 403 L 147 403 C 153 403 159 405 165 409 C 171 413 178 417 187 421 C 195 425 206 430 218 434 C 230 438 246 440 265 440 C 297 440 326 433 354 421 C 381 409 404 392 424 371 C 444 350 459 325 471 297 C 482 269 488 239 488 208 C 488 176 481 146 469 118 C 457 90 440 66 419 46 C 398 25 373 9 345 -2 C 317 -14 287 -20 256 -20 Z M 256 93 C 290 93 317 103 337 125 C 357 146 368 174 368 208 C 368 240 359 268 341 291 C 323 314 297 326 263 326 C 248 326 236 323 227 319 C 217 315 209 310 201 304 C 193 298 185 293 177 289 C 169 285 158 283 146 283 L 145 283 L 145 208 C 145 175 155 148 175 126 C 195 104 222 93 256 93 Z" horiz-adv-x="515" />
<glyph unicode="7" d="M 330 559 L 25 559 L 25 672 L 414 672 C 430 672 444 666 456 655 C 468 643 474 629 474 613 C 474 603 472 594 468 586 L 186 0 L 53 0 L 330 559 Z" horiz-adv-x="500" />
<glyph unicode="8" d="M 289 -20 C 247 -20 211 -14 180 -2 C 148 10 122 26 101 46 C 79 66 63 90 52 117 C 41 143 36 172 36 202 C 36 238 44 270 62 299 C 79 327 102 351 131 371 C 109 385 94 404 84 427 C 74 449 70 475 70 503 C 70 531 76 556 88 580 C 100 603 116 623 136 639 C 156 655 180 668 206 678 C 232 687 260 692 289 692 C 317 692 345 687 371 677 C 397 667 421 654 441 637 C 461 620 478 600 490 577 C 502 554 508 529 508 503 C 508 475 503 449 493 427 C 483 405 468 387 447 373 C 476 353 499 329 515 300 C 531 270 540 238 540 202 C 540 172 534 143 523 117 C 512 90 496 66 475 46 C 453 26 427 10 396 -2 C 364 -14 329 -20 289 -20 Z M 289 92 C 305 92 320 94 336 100 C 351 106 364 114 376 124 C 387 134 396 147 403 161 C 410 175 414 191 414 208 C 414 218 411 229 407 239 C 403 249 398 259 392 267 C 386 275 379 283 373 289 C 366 295 360 299 356 303 C 342 313 334 324 330 336 C 326 347 325 357 325 367 C 325 376 326 386 330 396 C 334 406 341 415 353 425 C 355 426 357 429 361 433 C 365 437 368 441 372 447 C 376 453 379 460 382 468 C 384 476 386 484 386 494 C 386 519 377 541 359 559 C 341 577 318 587 289 587 C 259 587 236 577 218 559 C 200 541 192 519 192 494 C 192 484 193 476 196 468 C 198 460 201 453 205 447 C 209 441 212 436 216 432 C 220 428 222 425 224 424 C 241 406 250 387 250 367 C 250 355 248 345 244 335 C 240 325 233 314 222 304 C 218 300 212 295 206 289 C 199 283 192 275 186 267 C 180 259 174 249 169 239 C 164 229 162 218 162 208 C 162 191 165 175 172 161 C 179 147 189 134 201 124 C 213 114 226 106 242 100 C 257 94 273 92 289 92 Z" horiz-adv-x="578" />
<glyph unicode="9" d="M 278 -20 C 246 -20 217 -14 189 -2 C 161 10 136 26 115 46 C 93 66 76 90 64 118 C 52 146 46 176 46 208 L 165 208 C 165 191 167 175 173 161 C 178 147 186 134 196 124 C 206 113 217 105 231 99 C 245 93 260 90 278 90 C 294 90 310 93 324 99 C 338 105 350 113 360 124 C 370 134 377 147 383 161 C 388 175 391 191 391 208 L 391 269 L 389 269 C 383 269 377 267 371 263 C 365 259 357 254 349 250 C 340 246 329 242 317 238 C 305 234 289 232 271 232 C 239 232 209 238 182 250 C 154 262 131 279 111 300 C 91 321 76 346 65 374 C 53 402 48 432 48 464 C 48 496 54 525 66 553 C 78 581 95 605 116 626 C 137 646 162 662 190 674 C 218 686 248 692 280 692 C 312 692 342 686 370 674 C 398 662 422 646 443 626 C 464 605 481 581 493 553 C 505 525 511 496 511 464 L 511 208 C 511 176 504 146 492 118 C 480 90 463 66 442 46 C 420 26 395 10 367 -2 C 339 -14 309 -20 278 -20 Z M 273 346 C 287 346 299 348 309 352 C 318 356 327 361 335 367 C 343 373 351 378 359 382 C 367 386 377 389 390 389 L 391 389 L 391 464 C 391 496 381 524 361 546 C 341 568 314 579 280 579 C 246 579 218 568 198 547 C 178 525 168 498 168 464 C 168 431 176 403 194 380 C 212 357 238 346 273 346 Z" horiz-adv-x="556" />
<glyph unicode=":" d="M 45 124 L 165 124 L 165 0 L 45 0 L 45 124 Z M 45 466 L 165 466 L 165 342 L 45 342 L 45 466 Z" horiz-adv-x="210" />
<glyph unicode=";" d="M 45 466 L 165 466 L 165 342 L 45 342 L 45 466 Z M 47 -53 C 81 -51 99 -33 99 0 L 45 0 L 45 124 L 165 124 L 165 0 C 165 -40 154 -68 134 -86 C 113 -104 84 -114 47 -118 L 47 -53 Z" horiz-adv-x="210" />
<glyph unicode="&#x3C;" d="M 45 271 L 45 401 L 718 672 L 718 543 L 206 336 L 718 129 L 718 0 L 45 271 Z" horiz-adv-x="763" />
<glyph unicode="=" d="M 45 419 L 523 419 L 523 299 L 45 299 L 45 419 Z M 45 179 L 523 179 L 523 60 L 45 60 L 45 179 Z" horiz-adv-x="568" />
<glyph unicode="&#x3E;" d="M 45 129 L 558 336 L 45 543 L 45 672 L 718 401 L 718 271 L 45 0 L 45 129 Z" horiz-adv-x="763" />
<glyph unicode="?" d="M 179 124 L 299 124 L 299 0 L 179 0 L 179 124 Z M 179 194 C 179 223 183 247 192 267 C 200 286 211 303 224 317 C 237 331 251 344 267 354 C 282 364 296 375 309 386 C 322 397 333 409 342 422 C 350 435 355 451 355 471 C 355 501 345 526 325 546 C 305 565 280 575 250 575 C 219 575 194 565 174 546 C 154 526 145 501 145 471 L 145 448 L 25 448 L 25 471 C 25 501 31 530 43 557 C 55 583 71 606 91 626 C 111 646 135 661 163 672 C 190 683 219 689 250 689 C 280 689 309 683 336 672 C 363 661 387 646 408 626 C 428 606 445 583 457 557 C 469 530 475 501 475 471 C 475 442 470 417 462 396 C 453 375 442 356 429 340 C 416 324 402 309 387 297 C 371 285 357 273 344 263 C 331 253 320 243 312 233 C 303 223 299 212 299 201 L 299 171 L 179 171 L 179 194 Z" horiz-adv-x="500" />
<glyph unicode="@" d="M 373 -115 C 325 -115 279 -105 237 -87 C 195 -69 158 -44 127 -13 C 95 18 70 55 52 97 C 34 139 25 185 25 233 C 25 281 34 326 52 368 C 70 410 95 447 127 479 C 158 510 195 535 237 553 C 279 571 325 581 373 581 C 421 581 466 571 508 553 C 550 535 587 510 619 479 C 650 447 675 410 693 368 C 711 326 721 281 721 233 C 721 211 718 187 714 163 C 710 139 702 116 692 96 C 681 75 667 58 649 45 C 631 31 608 25 581 25 C 565 25 550 27 538 33 C 526 39 516 45 510 51 C 500 59 493 67 488 75 C 483 83 477 87 471 87 C 465 87 459 85 452 81 C 444 77 436 73 427 69 C 418 64 408 60 397 56 C 386 52 375 51 363 51 C 337 51 314 55 292 65 C 270 74 250 87 234 104 C 217 120 204 140 195 162 C 185 184 181 207 181 233 C 181 257 185 281 194 303 C 202 325 214 344 230 361 C 246 377 264 390 286 400 C 308 410 331 415 357 415 C 372 415 388 412 404 406 C 420 400 434 393 446 385 L 446 405 L 535 405 L 535 166 C 535 153 538 142 545 132 C 552 122 563 117 578 117 C 588 117 597 121 604 131 C 610 140 615 151 619 163 C 623 175 625 188 627 201 C 628 214 629 225 629 233 C 629 268 622 301 609 333 C 595 364 577 391 554 415 C 531 438 504 456 473 470 C 441 484 408 491 373 491 C 337 491 304 484 273 470 C 242 456 215 438 192 414 C 169 390 151 363 138 332 C 124 300 118 267 118 233 C 118 197 124 164 138 133 C 151 102 169 75 192 51 C 215 27 242 9 273 -4 C 304 -18 337 -25 373 -25 C 395 -25 416 -22 436 -16 C 455 -10 475 -2 495 8 L 534 -77 C 507 -88 481 -97 455 -104 C 429 -111 402 -115 373 -115 Z M 363 141 C 378 141 392 144 404 151 C 416 158 430 163 446 166 L 446 300 C 430 302 416 307 404 314 C 392 321 378 325 363 325 C 350 325 338 322 327 317 C 315 312 305 305 297 297 C 289 289 282 279 277 268 C 272 257 270 245 270 233 C 270 220 272 208 277 197 C 282 186 289 176 297 168 C 305 160 315 153 327 148 C 338 143 350 141 363 141 Z" horiz-adv-x="746" />
<glyph unicode="A" d="M 280 672 L 412 672 L 667 0 L 534 0 L 479 144 L 323 144 C 292 144 264 138 239 128 C 214 117 196 96 184 66 L 158 0 L 25 0 L 280 672 Z M 252 248 C 262 254 273 258 283 260 C 293 261 304 262 316 262 L 434 262 L 346 496 L 252 248 Z" horiz-adv-x="692" />
<glyph unicode="B" d="M 45 672 L 354 672 C 382 672 408 666 432 656 C 456 646 477 632 495 614 C 513 596 527 575 537 551 C 547 527 552 501 552 473 C 552 451 547 428 537 404 C 527 380 514 361 498 346 C 522 328 541 306 554 278 C 566 250 573 222 573 192 C 573 164 567 139 557 116 C 547 92 533 72 515 55 C 497 38 477 25 453 15 C 429 5 404 0 378 0 L 45 0 L 45 672 Z M 169 378 C 176 384 186 389 198 392 C 210 394 220 396 230 396 L 354 396 C 377 396 395 404 408 421 C 421 437 428 456 428 478 C 428 498 420 516 406 531 C 392 546 374 554 354 554 L 169 554 L 169 378 Z M 378 118 C 400 118 417 126 430 142 C 442 158 449 176 449 197 C 449 206 447 215 443 225 C 439 235 434 243 428 251 C 422 259 414 265 406 270 C 397 275 388 278 378 278 L 235 278 C 215 278 199 272 187 260 C 175 248 169 233 169 214 L 169 118 L 378 118 Z" horiz-adv-x="598" />
<glyph unicode="C" d="M 373 -13 C 325 -13 279 -3 237 14 C 195 32 158 57 127 89 C 95 121 70 158 52 200 C 34 242 25 288 25 336 C 25 384 34 429 52 471 C 70 513 95 550 127 582 C 158 613 195 638 237 656 C 279 674 325 684 373 684 C 409 684 443 678 476 668 C 509 658 540 643 568 624 C 596 604 622 581 644 554 C 666 527 683 497 697 464 L 562 464 C 541 498 514 523 481 540 C 448 557 412 566 373 566 C 340 566 310 560 283 548 C 255 536 232 519 212 499 C 192 478 176 454 165 426 C 154 398 149 368 149 336 C 149 304 154 273 165 245 C 176 217 192 192 212 172 C 232 151 255 135 283 123 C 310 111 340 105 373 105 C 412 105 448 113 481 131 C 514 148 541 174 562 208 L 697 208 C 683 174 666 144 644 117 C 622 90 596 67 568 48 C 540 28 509 13 476 3 C 443 -7 409 -13 373 -13 Z" horiz-adv-x="722" />
<glyph unicode="D" d="M 45 672 L 290 672 C 340 672 386 664 428 648 C 469 632 504 610 533 582 C 562 553 584 518 600 477 C 616 435 624 389 624 339 C 624 289 616 244 600 203 C 584 161 561 126 532 96 C 502 66 467 42 426 25 C 385 8 340 0 290 0 L 45 0 L 45 672 Z M 290 118 C 323 118 353 123 379 134 C 405 145 427 160 445 180 C 463 199 476 222 486 250 C 495 277 500 307 500 339 C 500 406 482 459 447 497 C 412 535 360 554 290 554 L 169 554 L 169 118 L 290 118 Z" horiz-adv-x="632" />
<glyph unicode="E" d="M 45 672 L 515 672 L 515 554 L 169 554 L 169 367 C 180 377 194 385 210 389 C 226 393 241 395 256 395 L 515 395 L 515 277 L 256 277 C 230 277 209 268 193 252 C 177 236 169 215 169 190 L 169 118 L 515 118 L 515 0 L 45 0 L 45 672 Z" horiz-adv-x="560" />
<glyph unicode="F" d="M 45 672 L 515 672 L 515 554 L 169 554 L 169 367 C 180 377 194 385 210 389 C 226 393 241 395 256 395 L 515 395 L 515 277 L 256 277 C 230 277 209 268 193 252 C 177 236 169 215 169 190 L 169 0 L 45 0 L 45 672 Z" horiz-adv-x="560" />
<glyph unicode="G" d="M 373 -12 C 325 -12 279 -2 237 15 C 195 33 158 58 127 90 C 95 121 70 158 52 200 C 34 242 25 288 25 336 C 25 384 34 429 52 471 C 70 513 95 550 127 582 C 158 614 195 639 237 657 C 279 675 325 685 373 685 C 409 685 443 679 476 669 C 509 658 540 643 568 624 C 596 604 622 581 644 554 C 666 527 683 497 697 464 L 562 464 C 541 498 514 523 481 541 C 448 558 412 567 373 567 C 340 567 310 561 283 549 C 255 537 232 520 212 500 C 192 479 176 454 165 426 C 154 398 149 368 149 336 C 149 304 154 274 165 246 C 176 218 192 193 212 173 C 232 152 255 136 283 124 C 310 112 340 106 373 106 C 424 106 469 120 507 148 C 545 176 572 215 588 265 L 342 265 L 342 383 L 718 383 C 719 375 720 367 721 359 C 721 351 722 344 722 336 C 722 288 712 242 694 200 C 676 158 651 121 619 89 C 587 57 550 33 508 15 C 466 -3 421 -12 373 -12 Z" horiz-adv-x="747" />
<glyph unicode="H" d="M 45 672 L 169 672 L 169 370 C 180 379 193 385 208 389 C 222 393 237 395 252 395 L 495 395 L 495 672 L 620 672 L 620 0 L 495 0 L 495 277 L 248 277 C 224 277 205 269 191 255 C 176 241 169 222 169 199 L 169 0 L 45 0 L 45 672 Z" horiz-adv-x="665" />
<glyph unicode="I" d="M 60 672 L 184 672 L 184 0 L 60 0 L 60 672 Z" horiz-adv-x="244" />
<glyph unicode="J" d="M 307 -14 C 268 -14 231 -6 197 8 C 163 23 133 43 108 69 C 82 94 62 124 47 158 C 32 192 25 229 25 268 L 149 268 C 149 244 152 223 160 203 C 167 183 178 165 192 151 C 206 136 222 124 242 116 C 261 108 283 104 307 104 C 331 104 352 108 372 116 C 391 124 408 136 422 151 C 436 165 446 183 454 203 C 461 223 465 244 465 268 L 465 672 L 589 672 L 589 268 C 589 229 581 192 566 158 C 551 124 531 94 506 69 C 480 43 450 23 416 8 C 382 -6 345 -14 307 -14 Z" horiz-adv-x="634" />
<glyph unicode="K" d="M 45 672 L 169 672 L 169 397 L 172 397 C 184 397 194 398 202 400 C 210 402 217 405 223 409 C 229 413 235 418 241 424 C 247 430 254 438 262 448 L 451 672 L 615 672 L 360 385 C 352 376 344 367 336 359 C 327 351 318 344 308 338 C 317 332 326 325 336 316 C 345 306 353 298 361 290 C 405 242 448 193 490 145 C 532 96 575 48 619 0 L 456 0 L 263 228 C 255 237 248 245 242 252 C 236 258 231 264 225 268 C 219 272 212 275 204 277 C 196 279 187 280 175 280 L 169 280 L 169 0 L 45 0 L 45 672 Z" horiz-adv-x="644" />
<glyph unicode="L" d="M 45 672 L 169 672 L 169 118 L 520 118 L 520 0 L 45 0 L 45 672 Z" horiz-adv-x="545" />
<glyph unicode="M" d="M 45 672 L 194 672 L 393 233 L 585 672 L 734 672 L 734 0 L 609 0 L 609 413 L 465 92 L 406 92 C 374 92 348 99 328 115 C 308 131 292 153 279 181 L 169 421 L 169 0 L 45 0 L 45 672 Z" horiz-adv-x="779" />
<glyph unicode="N" d="M 45 672 L 183 672 L 468 145 L 475 133 L 475 672 L 599 672 L 599 0 L 510 0 C 471 0 440 8 417 25 C 394 41 374 66 356 100 L 169 443 L 169 0 L 45 0 L 45 672 Z" horiz-adv-x="644" />
<glyph unicode="O" d="M 374 -12 C 326 -12 280 -2 238 15 C 196 33 159 58 127 90 C 95 121 70 158 52 200 C 34 242 25 288 25 336 C 25 384 34 429 52 471 C 70 513 95 550 127 582 C 159 614 196 639 238 657 C 280 675 326 685 374 685 C 422 685 467 675 509 657 C 551 639 588 614 620 582 C 651 550 676 513 694 471 C 712 429 722 384 722 336 C 722 288 712 242 694 200 C 676 158 651 121 620 90 C 588 58 551 33 509 15 C 467 -2 422 -12 374 -12 Z M 374 106 C 406 106 436 112 464 124 C 491 136 515 152 535 173 C 555 193 570 218 581 246 C 592 274 598 304 598 336 C 598 368 592 398 581 426 C 570 454 555 479 535 500 C 515 520 491 537 464 549 C 436 561 406 567 374 567 C 341 567 311 561 284 549 C 256 537 233 520 213 500 C 193 479 177 454 166 426 C 155 398 150 368 150 336 C 150 304 155 274 166 246 C 177 218 193 193 213 173 C 233 152 256 136 284 124 C 311 112 341 106 374 106 Z" horiz-adv-x="747" />
<glyph unicode="P" d="M 45 672 L 350 672 C 384 672 415 665 444 653 C 472 640 497 623 518 601 C 539 579 556 553 568 524 C 580 494 586 463 586 430 C 586 397 579 366 567 338 C 555 309 538 284 517 263 C 495 241 470 224 442 212 C 413 200 382 194 350 194 L 245 194 C 221 194 203 187 189 174 C 175 160 169 142 169 119 L 169 0 L 45 0 L 45 672 Z M 169 292 C 181 300 193 305 205 308 C 217 310 230 312 245 312 L 350 312 C 366 312 381 315 395 322 C 409 328 420 337 430 349 C 440 360 447 373 453 387 C 458 401 461 417 461 433 C 461 469 450 498 430 520 C 410 542 383 554 350 554 L 169 554 L 169 292 Z" horiz-adv-x="611" />
<glyph unicode="Q" d="M 374 -12 C 326 -12 280 -2 238 15 C 196 33 159 58 127 90 C 95 121 70 158 52 200 C 34 242 25 288 25 336 C 25 384 34 429 52 471 C 70 513 95 550 127 582 C 159 614 196 639 238 657 C 280 675 326 685 374 685 C 422 685 467 675 509 657 C 551 639 588 614 620 582 C 651 550 676 513 694 471 C 712 429 722 384 722 336 C 722 291 714 249 699 210 C 683 171 662 136 634 105 L 726 0 L 564 0 L 539 30 C 514 16 488 6 460 -1 C 432 -8 404 -12 374 -12 Z M 374 106 C 389 106 404 107 418 110 C 432 112 446 116 460 122 C 448 135 439 145 431 153 C 423 160 414 165 406 169 C 398 172 388 174 378 174 C 368 174 354 175 338 175 L 324 175 L 324 293 L 376 293 C 398 293 417 291 433 287 C 449 283 464 277 477 269 C 490 261 503 251 515 239 C 527 227 541 213 555 197 C 568 216 578 237 586 261 C 594 284 598 309 598 336 C 598 368 592 398 581 426 C 570 454 555 479 535 500 C 515 520 491 537 464 549 C 436 561 406 567 374 567 C 341 567 311 561 284 549 C 256 537 233 520 213 500 C 193 479 177 454 166 426 C 155 398 150 368 150 336 C 150 304 155 274 166 246 C 177 218 193 193 213 173 C 233 152 256 136 284 124 C 311 112 341 106 374 106 Z" horiz-adv-x="751" />
<glyph unicode="R" d="M 45 672 L 351 672 C 385 672 416 665 445 653 C 473 640 498 623 519 601 C 540 579 556 553 568 524 C 580 494 586 463 586 430 C 586 404 582 380 574 357 C 566 333 555 312 541 292 C 527 272 510 255 490 241 C 470 226 449 215 425 209 L 418 207 L 427 197 L 608 0 L 442 0 L 303 157 C 293 168 282 177 272 184 C 261 190 248 194 232 194 C 210 194 194 186 184 171 C 174 156 170 139 170 119 L 170 0 L 45 0 L 45 672 Z M 170 290 C 181 299 193 305 207 308 C 221 310 235 312 250 312 L 351 312 C 367 312 382 315 396 322 C 410 328 421 337 431 348 C 441 359 448 372 454 387 C 459 401 462 417 462 433 C 462 469 451 498 431 520 C 411 542 384 554 351 554 L 170 554 L 170 290 Z" horiz-adv-x="633" />
<glyph unicode="S" d="M 288 -14 C 256 -14 225 -9 194 1 C 162 11 134 25 109 44 C 84 62 64 85 48 112 C 32 139 25 170 25 205 L 149 205 C 149 188 153 173 162 161 C 171 148 183 137 197 128 C 211 119 226 112 242 108 C 258 103 274 101 288 101 C 302 101 317 102 333 106 C 349 109 365 114 379 122 C 393 129 404 139 414 151 C 423 163 428 178 428 196 C 428 218 418 234 400 246 C 381 258 358 268 330 276 C 302 284 271 291 238 299 C 205 307 175 318 147 332 C 119 346 95 366 77 391 C 58 415 49 448 49 490 C 49 522 55 551 69 576 C 83 600 101 621 123 637 C 145 653 171 666 200 674 C 228 682 257 686 287 686 C 312 686 338 682 365 675 C 392 667 417 656 439 641 C 461 626 480 608 494 586 C 508 564 516 538 516 509 L 391 509 C 389 519 384 528 376 536 C 368 544 359 550 349 555 C 339 560 328 564 317 567 C 305 569 295 571 287 571 C 275 571 263 569 250 567 C 236 564 224 559 213 553 C 201 547 192 539 184 529 C 176 519 173 508 173 494 C 173 478 178 465 189 455 C 200 445 214 437 232 430 C 250 423 270 417 293 412 C 315 406 338 400 362 394 C 386 388 409 380 432 371 C 454 362 474 350 492 336 C 510 322 524 304 535 283 C 546 261 552 235 552 205 C 552 170 544 139 528 112 C 512 84 492 61 467 43 C 442 24 414 10 382 0 C 350 -9 319 -14 288 -14 Z" horiz-adv-x="577" />
<glyph unicode="T" d="M 230 475 C 230 488 231 502 234 517 C 237 531 243 544 253 554 L 25 554 L 25 672 L 566 672 L 566 554 L 425 554 C 402 554 384 546 372 532 C 360 518 354 500 354 479 L 354 0 L 230 0 L 230 475 Z" horiz-adv-x="591" />
<glyph unicode="U" d="M 327 -10 C 288 -10 251 -2 217 12 C 183 27 153 47 128 73 C 102 98 82 128 67 162 C 52 196 45 233 45 272 L 45 672 L 169 672 L 169 266 C 169 244 173 223 181 204 C 189 185 201 168 215 154 C 229 140 246 128 265 120 C 284 112 305 108 327 108 C 349 108 369 112 388 120 C 407 128 424 140 438 154 C 452 168 464 185 472 204 C 480 223 485 244 485 266 L 485 672 L 609 672 L 609 272 C 609 233 601 196 586 162 C 571 128 551 98 526 73 C 500 47 470 27 436 12 C 402 -2 365 -10 327 -10 Z" horiz-adv-x="654" />
<glyph unicode="V" d="M 371 0 C 329 0 294 11 268 33 C 242 55 222 85 209 124 L 25 672 L 156 672 L 326 159 C 328 151 332 143 336 135 C 340 126 347 121 357 119 L 547 672 L 679 672 L 445 0 L 371 0 L 371 0 Z" horiz-adv-x="704" />
<glyph unicode="W" d="M 301 0 C 261 0 230 12 207 36 C 184 60 168 90 159 126 L 25 672 L 150 672 L 286 135 L 287 130 L 427 672 L 557 672 L 687 138 L 689 130 L 831 672 L 960 672 L 783 0 L 704 0 C 663 0 631 11 609 35 C 586 59 570 89 562 126 L 490 435 L 380 0 L 301 0 L 301 0 Z" horiz-adv-x="985" />
<glyph unicode="X" d="M 319 232 L 176 0 L 28 0 L 247 333 L 25 672 L 173 672 L 318 438 L 465 672 L 614 672 L 391 334 L 611 0 L 463 0 L 319 232 Z" horiz-adv-x="639" />
<glyph unicode="Y" d="M 344 188 C 306 191 275 201 250 217 C 224 233 204 259 189 294 L 25 672 L 159 672 L 288 355 C 297 333 310 319 328 313 C 345 307 364 304 386 304 L 521 672 L 653 672 L 407 0 L 275 0 L 344 188 Z" horiz-adv-x="678" />
<glyph unicode="Z" d="M 25 108 L 368 554 L 49 554 L 49 672 L 526 672 L 526 562 L 185 118 L 516 118 L 516 0 L 25 0 L 25 108 Z" horiz-adv-x="551" />
<glyph unicode="[" d="M 85 745 L 327 745 L 327 637 L 202 637 L 202 -11 L 327 -11 L 327 -120 L 85 -120 L 85 745 Z" horiz-adv-x="312" />
<glyph unicode="\" d="M 25 672 L 154 672 L 425 0 L 296 0 L 25 672 Z" horiz-adv-x="450" />
<glyph unicode="]" d="M 30 -12 L 155 -12 L 155 636 L 30 636 L 30 745 L 272 745 L 272 -120 L 30 -120 L 30 -12 Z" horiz-adv-x="312" />
<glyph unicode="^" d="M 165 672 L 285 672 L 425 325 L 325 325 L 225 582 L 126 325 L 25 325 L 165 672 Z" horiz-adv-x="450" />
<glyph unicode="_" d="M 0 0 L 472 0 L 472 -82 L 0 -82 L 0 0 Z" horiz-adv-x="472" />
<glyph unicode="`" d="M 45 672 L 199 672 L 308 531 L 206 531 L 45 672 Z" horiz-adv-x="353" />
<glyph unicode="a" d="M 281 -20 C 245 -20 211 -13 180 0 C 149 12 122 30 99 52 C 76 74 58 101 45 132 C 31 163 25 197 25 233 C 25 267 31 300 44 331 C 57 362 75 389 98 412 C 121 435 148 453 178 467 C 208 480 241 486 277 486 C 299 486 317 483 333 479 C 348 475 361 470 372 465 C 382 459 391 454 398 450 C 405 446 412 444 418 444 L 418 466 L 538 466 L 538 127 C 538 113 541 101 548 91 C 554 81 562 71 572 62 L 488 -23 C 485 -20 481 -16 477 -12 C 473 -7 468 -2 463 2 C 458 6 453 10 449 14 C 444 17 440 19 436 19 C 428 19 420 17 412 13 C 404 9 395 4 384 0 C 373 -5 359 -10 343 -14 C 327 -18 306 -20 281 -20 Z M 281 93 C 296 93 310 95 324 99 C 337 103 350 108 362 113 C 374 118 385 122 395 126 C 405 130 415 131 424 129 C 420 137 418 145 418 153 C 418 161 418 170 418 178 L 418 331 C 404 332 393 335 383 339 C 373 343 364 348 354 353 C 344 358 334 362 322 366 C 310 370 297 372 281 372 C 239 372 206 359 181 333 C 156 307 144 273 144 233 C 144 192 156 158 181 132 C 206 106 239 93 281 93 Z" horiz-adv-x="597" />
<glyph unicode="b" d="M 316 -19 C 294 -19 276 -16 262 -12 C 248 -8 235 -3 225 2 C 214 7 204 12 195 16 C 186 20 176 23 165 23 L 165 0 L 45 0 L 45 672 L 165 672 L 165 445 C 171 445 179 447 187 451 C 195 455 204 460 215 465 C 225 470 238 475 253 479 C 267 483 285 486 305 486 C 341 486 374 479 405 467 C 436 454 463 436 485 414 C 507 391 525 364 538 333 C 550 302 557 269 557 233 C 557 199 550 167 538 137 C 526 107 509 80 487 57 C 465 33 440 15 411 1 C 381 -12 350 -19 316 -19 Z M 301 93 C 321 93 339 96 356 104 C 372 111 387 121 399 134 C 411 146 420 161 427 178 C 433 195 437 213 437 233 C 437 253 433 271 427 288 C 420 304 411 319 399 332 C 387 344 372 354 356 361 C 339 368 321 372 301 372 C 286 372 273 369 262 365 C 250 361 240 356 230 351 C 220 346 209 342 199 338 C 189 334 177 332 165 332 L 165 133 C 177 133 189 131 200 127 C 210 123 221 118 232 113 C 242 108 253 103 264 99 C 275 95 287 93 301 93 Z" horiz-adv-x="582" />
<glyph unicode="c" d="M 281 -20 C 245 -20 212 -13 181 0 C 150 12 123 30 100 53 C 77 76 59 103 45 134 C 31 164 25 197 25 233 C 25 268 31 301 45 332 C 59 362 77 389 100 412 C 123 435 150 453 181 466 C 212 479 245 486 281 486 C 308 486 334 481 360 473 C 385 465 408 453 430 438 C 451 423 470 405 486 384 C 502 362 514 339 524 313 L 395 313 C 381 333 365 348 346 358 C 326 367 305 372 281 372 C 261 372 243 368 227 361 C 210 353 196 343 184 331 C 172 319 162 304 155 287 C 148 270 145 252 145 233 C 145 213 148 195 155 178 C 162 161 172 146 184 134 C 196 121 210 111 227 104 C 243 96 261 93 281 93 C 304 93 326 97 346 107 C 366 117 383 132 396 153 L 524 153 C 516 126 504 102 488 81 C 472 59 453 41 431 26 C 409 11 386 0 360 -8 C 334 -16 308 -20 281 -20 Z" horiz-adv-x="549" />
<glyph unicode="d" d="M 281 -21 C 245 -21 211 -14 180 -1 C 149 11 122 29 99 52 C 76 75 58 102 45 133 C 31 163 25 197 25 233 C 25 267 31 300 44 331 C 57 361 75 388 97 411 C 119 434 146 452 176 466 C 206 480 239 487 275 487 C 297 487 315 484 331 480 C 347 476 360 471 371 466 C 382 461 391 456 398 452 C 405 448 412 446 418 446 L 418 672 L 538 672 L 538 129 C 538 115 541 103 548 93 C 555 83 563 73 573 64 L 488 -20 C 480 -13 472 -5 464 4 C 455 13 446 18 436 18 C 430 18 423 16 415 12 C 407 8 396 3 384 -1 C 371 -6 356 -11 339 -15 C 322 -19 303 -21 281 -21 Z M 281 92 C 293 92 304 94 316 98 C 328 102 340 106 352 111 C 364 116 376 121 388 125 C 400 129 412 132 424 132 C 420 140 418 147 418 154 C 418 161 418 169 418 177 L 418 333 C 405 334 394 337 384 341 C 374 345 364 350 354 355 C 344 360 333 364 322 368 C 310 372 297 374 281 374 C 239 374 205 360 181 334 C 157 307 145 273 145 233 C 145 192 157 158 181 132 C 205 105 239 92 281 92 Z" horiz-adv-x="598" />
<glyph unicode="e" d="M 281 -20 C 245 -20 212 -13 181 0 C 150 12 123 30 100 53 C 76 75 58 102 45 133 C 31 164 25 197 25 233 C 25 268 31 301 45 332 C 58 362 76 389 100 412 C 123 434 150 452 181 465 C 212 478 245 485 281 485 C 314 485 346 478 377 466 C 407 454 434 437 458 415 C 482 393 501 368 515 338 C 529 308 537 277 537 243 C 537 232 536 222 536 212 C 536 202 534 191 532 181 L 205 181 C 197 181 190 179 184 175 C 177 171 174 164 174 156 C 174 150 175 145 179 140 C 190 124 205 112 224 104 C 243 96 262 93 281 93 C 300 93 318 96 336 103 C 354 110 369 121 383 137 L 518 137 C 498 87 466 49 424 21 C 381 -6 333 -20 281 -20 Z M 145 262 C 156 271 168 277 180 280 C 192 283 205 285 219 285 L 407 285 C 397 312 382 333 361 349 C 339 364 313 372 281 372 C 264 372 248 369 232 364 C 216 359 202 352 190 343 C 178 333 168 322 160 308 C 152 294 147 279 145 262 Z" horiz-adv-x="562" />
<glyph unicode="f" d="M 45 302 C 45 320 48 339 56 359 C 63 379 74 394 90 406 C 76 418 65 435 57 455 C 49 475 45 494 45 513 C 45 537 49 558 57 578 C 65 597 76 614 91 628 C 105 642 123 652 143 660 C 163 668 184 672 208 672 L 296 672 L 296 559 L 208 559 C 195 559 185 554 177 544 C 169 534 165 523 165 512 C 165 500 169 490 177 480 C 185 470 196 466 208 466 L 296 466 L 296 352 L 208 352 C 196 352 185 347 177 339 C 169 331 165 321 165 309 L 165 0 L 45 0 L 45 302 Z" horiz-adv-x="321" />
<glyph unicode="g" d="M 281 90 C 297 90 310 91 322 95 C 333 99 344 103 354 108 C 364 113 374 118 384 122 C 394 126 405 129 419 131 L 419 331 C 405 332 394 335 384 339 C 374 343 365 348 355 353 C 345 358 334 362 322 366 C 310 370 297 372 281 372 C 260 372 241 368 225 361 C 208 354 194 344 182 332 C 170 320 160 305 154 288 C 148 271 145 253 145 233 C 145 213 148 194 154 177 C 160 159 170 144 182 131 C 194 118 208 108 225 101 C 241 93 260 90 281 90 Z M 298 -258 C 269 -258 242 -253 216 -245 C 190 -237 166 -225 146 -210 C 125 -195 107 -177 93 -157 C 78 -136 67 -113 61 -89 L 199 -89 C 206 -112 219 -129 238 -140 C 256 -150 280 -156 308 -156 C 342 -156 369 -144 389 -121 C 409 -97 419 -63 419 -17 L 419 18 C 409 16 400 12 392 8 C 384 3 374 -1 364 -5 C 354 -9 342 -13 328 -17 C 314 -21 296 -23 276 -23 C 240 -23 207 -16 177 -2 C 146 11 119 29 97 53 C 75 76 57 103 44 134 C 31 165 25 198 25 233 C 25 269 31 302 44 333 C 57 363 75 390 97 413 C 119 435 146 453 177 466 C 207 479 241 486 277 486 C 299 486 317 483 333 479 C 348 475 361 470 372 465 C 382 459 391 454 398 450 C 405 446 412 444 418 444 L 418 466 L 539 466 L 539 6 C 539 -79 517 -144 475 -190 C 433 -235 374 -258 298 -258 Z" horiz-adv-x="584" />
<glyph unicode="h" d="M 45 672 L 165 672 L 165 445 C 175 447 186 450 196 455 C 206 459 217 464 228 468 C 239 472 251 476 264 480 C 277 484 292 486 309 486 C 339 486 367 481 393 469 C 419 457 441 440 459 420 C 477 400 492 376 502 349 C 512 322 518 294 518 264 L 518 0 L 398 0 L 398 270 C 398 284 395 297 391 310 C 386 322 379 333 371 343 C 362 352 352 359 340 365 C 328 371 314 374 300 374 C 288 374 277 371 267 367 C 256 363 245 358 234 353 C 223 347 212 342 201 337 C 189 332 177 329 165 329 L 165 0 L 45 0 L 45 672 Z" horiz-adv-x="543" />
<glyph unicode="i" d="M 60 672 L 180 672 L 180 549 L 60 549 L 60 672 Z M 60 466 L 180 466 L 180 0 L 60 0 L 60 466 Z" horiz-adv-x="240" />
<glyph unicode="j" d="M 90 672 L 209 672 L 209 549 L 90 549 L 90 672 Z M 25 -87 C 33 -87 42 -87 50 -87 C 58 -87 65 -86 71 -84 C 77 -82 81 -78 85 -72 C 88 -66 90 -58 90 -46 L 90 466 L 209 466 L 209 -46 C 209 -92 196 -130 171 -160 C 145 -190 109 -206 61 -206 L 25 -206 L 25 -87 Z" horiz-adv-x="254" />
<glyph unicode="k" d="M 45 672 L 164 672 L 164 293 L 167 293 C 183 293 195 294 205 298 C 215 301 225 309 237 321 L 376 466 L 544 466 L 324 251 C 317 244 309 238 301 233 C 305 231 308 228 312 226 C 315 223 318 220 322 217 L 543 0 L 375 0 L 237 144 C 225 155 215 162 206 166 C 196 170 185 172 171 173 L 164 173 L 164 0 L 45 0 L 45 672 Z" horiz-adv-x="569" />
<glyph unicode="l" d="M 60 672 L 179 672 L 179 0 L 60 0 L 60 672 Z" horiz-adv-x="239" />
<glyph unicode="m" d="M 45 466 L 165 466 L 165 443 C 173 443 180 446 187 451 C 194 455 202 460 211 466 C 219 471 229 476 240 480 C 251 484 264 486 280 486 C 303 486 325 481 345 471 C 365 461 383 448 399 431 C 417 449 438 462 462 472 C 486 481 510 486 536 486 C 564 486 590 480 614 470 C 638 459 660 444 678 426 C 696 408 711 386 722 362 C 732 338 738 312 738 284 L 738 0 L 618 0 L 618 290 C 618 313 610 332 594 348 C 578 364 559 372 536 372 C 512 372 493 364 477 348 C 461 332 454 313 454 290 L 454 0 L 335 0 L 335 290 C 335 312 331 331 323 347 C 315 363 298 372 272 372 C 262 372 253 369 245 365 C 237 361 229 356 221 351 C 213 345 205 340 196 336 C 187 331 177 328 165 328 L 165 0 L 45 0 L 45 466 Z" horiz-adv-x="783" />
<glyph unicode="n" d="M 45 466 L 165 466 L 165 441 C 172 441 180 443 189 448 C 198 452 208 457 220 463 C 232 469 245 474 259 479 C 273 483 290 486 308 486 C 335 486 361 482 386 472 C 411 462 433 448 453 430 C 472 412 487 389 499 363 C 511 337 517 307 517 275 L 517 0 L 398 0 L 398 270 C 398 298 389 323 371 343 C 353 363 329 374 299 374 C 288 374 277 371 267 366 C 256 361 245 356 234 350 C 223 344 212 338 200 333 C 188 328 177 326 165 326 L 165 0 L 45 0 L 45 466 Z" horiz-adv-x="562" />
<glyph unicode="o" d="M 281 -20 C 246 -20 213 -13 182 0 C 151 13 124 31 101 54 C 77 77 59 104 45 135 C 31 165 25 198 25 233 C 25 267 31 300 45 331 C 59 361 77 388 101 411 C 124 433 151 451 182 465 C 213 478 246 485 281 485 C 315 485 347 478 378 465 C 409 451 436 433 460 411 C 484 388 502 361 516 331 C 530 300 537 267 537 233 C 537 198 530 165 516 135 C 502 104 484 77 461 54 C 437 31 410 13 379 0 C 348 -13 315 -20 281 -20 Z M 281 93 C 301 93 319 96 336 104 C 352 111 367 121 379 134 C 391 146 400 161 407 178 C 413 195 417 213 417 233 C 417 252 413 270 406 287 C 399 304 390 319 378 331 C 366 343 351 353 335 361 C 318 368 300 372 281 372 C 261 372 243 368 227 361 C 210 353 195 343 183 331 C 171 319 161 304 154 287 C 147 270 144 252 144 233 C 144 213 147 195 154 178 C 161 161 171 146 183 134 C 195 121 210 111 227 104 C 243 96 261 93 281 93 Z" horiz-adv-x="562" />
<glyph unicode="p" d="M 45 466 L 165 466 L 165 442 C 175 442 184 444 194 448 C 204 452 214 457 226 463 C 237 468 250 473 264 477 C 278 481 296 484 316 484 C 350 484 381 477 411 463 C 440 449 465 431 487 408 C 509 385 526 358 538 328 C 550 298 557 266 557 233 C 557 197 550 163 538 132 C 525 101 507 74 485 52 C 463 30 436 12 406 0 C 375 -13 342 -20 306 -20 C 286 -20 268 -17 253 -13 C 237 -9 224 -4 213 0 C 201 5 192 10 184 14 C 176 18 170 21 165 21 L 165 -206 L 45 -206 L 45 466 Z M 301 93 C 321 93 339 96 356 104 C 372 111 387 121 399 134 C 411 146 420 161 427 178 C 433 195 437 213 437 233 C 437 253 433 271 427 288 C 420 304 411 319 399 332 C 387 344 372 354 356 361 C 339 368 321 372 301 372 C 285 372 272 369 262 365 C 251 361 241 356 232 351 C 222 346 212 342 202 338 C 192 334 179 332 165 332 L 165 134 C 177 134 189 131 199 127 C 209 123 219 118 229 113 C 239 108 249 103 261 99 C 272 95 285 93 301 93 Z" horiz-adv-x="582" />
<glyph unicode="q" d="M 419 18 C 409 16 400 12 392 8 C 384 3 374 -1 364 -5 C 354 -9 342 -13 328 -17 C 314 -21 296 -23 276 -23 C 240 -23 207 -16 177 -2 C 146 11 119 29 97 53 C 75 76 57 103 44 134 C 31 165 25 198 25 233 C 25 269 31 302 45 333 C 58 364 76 391 99 414 C 122 437 149 455 180 469 C 211 482 245 489 281 489 C 303 489 323 487 340 483 C 356 479 371 474 383 469 C 395 464 406 460 414 456 C 422 452 430 450 436 450 C 446 450 456 454 464 463 C 472 472 480 480 488 488 L 573 404 C 563 394 555 384 549 374 C 542 364 539 352 539 339 L 539 -206 L 419 -206 L 419 18 Z M 281 90 C 297 90 310 91 322 95 C 333 99 344 103 354 108 C 364 113 374 118 384 122 C 394 126 405 129 419 131 L 419 291 C 419 299 419 307 419 315 C 419 323 421 332 425 340 C 423 339 420 339 416 339 C 407 339 398 341 388 345 C 378 349 367 353 356 357 C 345 361 333 366 321 370 C 308 374 295 376 281 376 C 260 376 241 372 225 365 C 208 357 194 347 182 334 C 170 321 160 306 154 289 C 148 271 145 253 145 233 C 145 213 148 194 154 177 C 160 159 170 144 182 131 C 194 118 208 108 225 101 C 241 93 260 90 281 90 Z" horiz-adv-x="598" />
<glyph unicode="r" d="M 61 338 C 61 351 58 361 54 369 C 50 376 44 383 37 391 L 25 403 L 110 488 C 119 478 128 469 138 460 C 148 451 160 447 175 447 C 181 447 188 449 196 453 C 204 457 213 461 225 466 C 236 471 249 476 265 480 C 281 484 300 486 322 486 L 322 374 C 308 377 296 377 285 375 C 273 372 262 368 251 363 C 239 358 228 353 217 348 C 205 343 193 340 181 340 L 176 340 C 179 331 181 320 181 308 L 181 0 L 61 0 L 61 338 Z" horiz-adv-x="347" />
<glyph unicode="s" d="M 233 -18 C 207 -18 182 -14 158 -7 C 133 0 111 11 91 26 C 71 40 55 58 43 80 C 31 101 25 126 25 154 L 145 154 C 145 142 148 133 156 125 C 163 117 172 110 183 105 C 193 100 205 96 217 94 C 229 92 239 91 248 91 C 254 91 262 91 271 93 C 279 95 287 97 295 101 C 303 105 309 109 315 115 C 320 121 323 128 323 137 C 323 147 319 156 311 163 C 303 169 292 175 279 179 C 266 183 251 187 235 191 C 219 195 202 199 185 204 C 167 208 150 214 134 221 C 117 227 102 236 89 247 C 76 258 66 271 58 287 C 50 303 46 322 46 345 C 46 369 51 391 63 409 C 74 427 89 442 107 454 C 125 466 145 474 167 480 C 189 486 211 489 233 489 C 253 489 274 486 296 480 C 318 474 337 465 355 453 C 373 441 387 426 399 408 C 410 390 416 369 416 346 L 297 345 C 295 351 292 357 286 361 C 280 365 273 368 266 370 C 258 372 251 374 243 375 C 235 376 229 377 224 377 C 220 377 214 376 208 375 C 202 374 195 373 189 371 C 183 369 177 366 173 362 C 169 358 167 354 167 348 C 167 337 173 329 187 324 C 201 318 218 313 238 308 C 258 303 281 298 305 292 C 329 286 351 277 371 265 C 391 253 408 238 422 219 C 436 200 443 176 443 146 C 443 118 436 93 424 73 C 411 52 395 35 375 22 C 355 8 332 -1 307 -8 C 282 -14 257 -18 233 -18 Z" horiz-adv-x="468" />
<glyph unicode="t" d="M 208 0 C 184 0 163 3 143 11 C 123 19 106 30 92 44 C 77 58 65 74 57 94 C 49 113 45 134 45 158 L 45 313 C 45 332 48 350 54 367 C 60 383 70 398 84 412 C 70 425 60 440 54 457 C 48 473 45 491 45 510 L 45 608 L 165 608 L 165 510 C 165 498 169 487 177 479 C 185 470 196 466 208 466 L 296 466 L 296 353 L 208 353 C 196 353 186 350 178 344 C 169 338 165 328 165 316 L 165 163 C 165 147 169 135 178 126 C 187 117 199 113 215 113 L 296 113 L 296 0 L 208 0 L 208 0 Z" horiz-adv-x="321" />
<glyph unicode="u" d="M 262 -20 C 230 -20 201 -14 175 -2 C 149 9 126 25 107 45 C 87 65 72 88 61 115 C 50 142 45 171 45 202 L 45 466 L 165 466 L 165 196 C 165 167 173 143 191 123 C 208 103 232 94 262 94 C 276 94 288 95 299 99 C 309 103 319 107 329 112 C 339 116 349 121 359 125 C 369 129 381 132 395 134 L 395 466 L 514 466 L 514 131 C 514 113 518 100 526 91 C 534 82 543 72 555 62 L 473 -20 C 470 -17 466 -13 462 -9 C 458 -4 453 0 448 5 C 443 9 438 13 433 17 C 428 20 423 22 419 22 C 411 22 403 19 393 15 C 383 11 372 6 360 1 C 347 -4 333 -9 317 -13 C 301 -17 282 -20 262 -20 Z" horiz-adv-x="580" />
<glyph unicode="v" d="M 307 0 C 289 0 273 2 259 6 C 245 10 234 17 224 26 C 214 34 205 45 198 57 C 190 69 183 83 177 99 L 25 465 L 154 465 L 292 124 L 295 116 L 435 465 L 565 465 L 371 0 L 307 0 L 307 0 Z" horiz-adv-x="590" />
<glyph unicode="w" d="M 275 0 C 239 0 211 9 191 28 C 170 46 155 71 145 102 L 25 466 L 152 466 L 261 130 L 264 121 L 379 466 L 515 466 L 623 132 L 627 121 L 742 466 L 869 466 L 708 0 L 639 0 C 601 0 573 9 553 28 C 533 47 518 72 508 104 L 446 300 L 345 0 L 275 0 L 275 0 Z" horiz-adv-x="894" />
<glyph unicode="x" d="M 204 231 L 25 466 L 175 466 L 275 322 L 376 466 L 525 466 L 347 231 L 522 0 L 372 0 L 275 140 L 178 0 L 29 0 L 204 231 Z" horiz-adv-x="550" />
<glyph unicode="y" d="M 151 -86 C 167 -86 181 -85 191 -83 C 201 -81 210 -79 216 -75 C 222 -71 228 -65 232 -58 C 236 -51 240 -42 245 -31 L 257 0 C 238 7 221 19 205 37 C 189 54 177 72 170 91 L 25 466 L 154 466 L 281 138 C 283 132 285 127 289 122 C 292 116 297 113 303 111 L 446 466 L 575 466 C 539 376 505 294 474 218 C 460 185 447 152 434 119 C 420 86 408 55 396 26 C 384 -2 373 -28 364 -50 C 354 -72 347 -90 343 -102 C 327 -139 305 -166 275 -182 C 245 -198 211 -206 173 -206 L 151 -206 L 151 -86 Z" horiz-adv-x="600" />
<glyph unicode="z" d="M 25 108 L 284 353 L 52 353 L 52 466 L 450 466 L 450 355 L 193 113 L 450 113 L 450 0 L 25 0 L 25 108 Z" horiz-adv-x="475" />
<glyph unicode="{" d="M 268 -159 C 226 -159 192 -146 168 -121 C 143 -96 131 -63 131 -21 L 131 173 C 131 191 124 206 112 220 C 99 233 83 240 65 240 L 45 240 L 45 354 L 65 354 C 83 354 98 360 111 374 C 124 387 131 403 131 421 L 131 615 C 131 657 143 690 168 715 C 192 739 226 752 268 752 L 308 752 L 308 638 C 284 638 267 633 259 624 C 250 614 246 598 246 575 L 246 401 C 246 380 242 361 234 344 C 226 326 214 311 200 297 C 214 283 226 267 234 250 C 242 232 246 213 246 193 L 246 19 C 246 -6 250 -23 258 -31 C 266 -39 282 -44 308 -44 L 309 -159 L 268 -159 Z" horiz-adv-x="394" />
<glyph unicode="|" d="M 60 745 L 179 745 L 179 -120 L 60 -120 L 60 745 Z" horiz-adv-x="239" />
<glyph unicode="}" d="M 86 -44 C 110 -44 126 -39 135 -30 C 143 -20 148 -4 148 19 L 148 193 C 148 213 152 232 160 250 C 168 267 179 283 194 297 C 179 311 168 326 160 344 C 152 361 148 380 148 401 L 148 575 C 148 600 144 617 136 625 C 128 633 111 638 86 638 L 85 752 L 126 752 C 168 752 201 739 226 715 C 250 690 263 657 263 615 L 263 421 C 263 403 269 387 282 374 C 294 360 310 354 329 354 L 349 354 L 349 240 L 329 240 C 311 240 295 233 282 220 C 269 206 263 191 263 173 L 263 -21 C 263 -63 250 -96 226 -121 C 201 -146 168 -159 126 -159 L 86 -159 L 86 -44 Z" horiz-adv-x="394" />
<glyph unicode="~" d="M 45 310 C 60 333 78 353 100 369 C 122 385 148 394 178 394 C 196 394 215 390 234 383 C 253 375 272 367 290 359 C 308 350 326 342 343 335 C 360 327 376 324 392 324 C 400 324 409 325 419 329 C 428 333 437 338 446 344 C 454 350 462 356 469 364 C 476 371 482 378 488 386 L 526 284 C 508 263 488 245 466 229 C 444 213 418 205 389 205 C 369 205 351 208 334 216 C 316 223 299 231 282 240 C 265 248 248 256 231 264 C 214 271 197 275 179 275 C 157 275 138 267 124 253 C 110 239 97 224 85 208 L 45 310 Z" horiz-adv-x="571" />
<glyph unicode=" " d="" horiz-adv-x="230" />
<glyph unicode="¡" d="M 45 478 L 165 478 L 165 0 L 45 0 L 45 478 Z M 45 672 L 165 672 L 165 548 L 45 548 L 45 672 Z" horiz-adv-x="210" />
<glyph unicode="¢" d="M 223 90 C 193 96 167 107 143 123 C 119 138 98 156 80 178 C 62 200 49 224 39 251 C 29 278 25 307 25 337 C 25 366 29 394 39 421 C 49 448 62 473 80 495 C 98 517 119 535 143 551 C 167 566 193 577 223 583 L 223 705 L 342 705 L 342 583 C 384 572 422 552 454 523 C 486 494 510 459 524 417 L 395 417 C 381 437 365 452 346 462 C 326 471 305 476 281 476 C 261 476 243 472 227 465 C 210 457 196 447 184 435 C 172 423 162 408 155 391 C 148 374 145 356 145 337 C 145 317 148 299 155 282 C 162 265 172 250 184 238 C 196 225 210 215 227 208 C 243 200 261 197 281 197 C 304 197 326 201 346 211 C 366 221 383 236 396 257 L 524 257 C 510 215 487 179 455 150 C 423 120 385 101 342 91 L 342 -33 L 223 -33 L 223 90 Z" horiz-adv-x="549" />
<glyph unicode="£" d="M 246 672 L 304 672 C 313 650 322 629 332 609 C 341 588 351 568 361 548 L 363 544 C 366 549 371 559 377 573 C 383 587 389 602 395 617 C 402 634 410 652 418 672 L 476 672 L 476 448 L 423 448 L 423 551 C 417 538 411 525 405 513 C 399 501 394 488 389 476 L 367 476 C 350 476 338 480 332 489 C 325 498 319 509 314 523 L 299 554 L 299 448 L 246 448 L 246 672 Z M 135 444 C 124 444 113 445 103 449 C 93 452 83 457 75 463 C 67 469 60 477 55 486 C 49 495 47 505 47 517 L 105 517 C 105 509 107 504 113 501 C 119 497 126 496 135 496 C 153 496 162 502 162 514 C 162 523 156 529 145 533 C 134 537 122 541 108 546 C 94 551 82 558 71 568 C 60 577 55 592 55 612 C 55 622 57 632 62 640 C 66 648 72 654 80 660 C 87 666 95 670 105 673 C 114 675 124 677 134 677 C 154 677 171 671 187 659 C 202 647 210 632 210 613 L 154 613 C 153 617 151 621 147 625 C 143 628 139 630 136 630 C 130 630 125 628 121 626 C 117 624 115 620 115 614 C 115 606 120 600 131 596 C 142 592 154 588 168 583 C 182 577 194 570 205 560 C 216 550 222 536 222 517 C 222 505 219 495 214 486 C 208 477 201 469 193 463 C 185 457 175 452 165 449 C 155 445 145 444 135 444 Z" horiz-adv-x="539" />
<glyph unicode="¨" d="M 184 673 L 304 673 L 304 549 L 184 549 L 184 673 Z M 25 673 L 145 673 L 145 549 L 25 549 L 25 673 Z" horiz-adv-x="329" />
<glyph unicode="©" d="M 373 147 C 347 147 322 152 299 162 C 276 172 256 185 239 202 C 221 219 208 239 198 262 C 188 285 183 310 183 336 C 183 362 188 386 198 410 C 208 433 221 453 239 470 C 256 487 276 501 299 511 C 322 521 347 526 373 526 C 393 526 413 522 432 516 C 451 510 469 501 485 490 C 501 478 515 465 527 449 C 539 433 548 416 555 397 L 458 397 C 448 411 436 422 421 430 C 406 438 390 442 373 442 C 357 442 343 439 331 433 C 319 427 308 420 300 411 C 291 401 284 390 279 377 C 274 364 272 350 272 336 C 272 321 274 307 279 295 C 284 282 291 271 300 261 C 308 251 319 244 331 239 C 343 233 357 231 373 231 C 390 231 406 234 422 242 C 437 250 449 261 458 277 L 555 277 C 548 257 539 240 527 224 C 515 208 501 194 485 183 C 469 171 451 162 432 156 C 413 150 393 147 373 147 Z M 373 -12 C 325 -12 279 -2 237 15 C 195 33 158 58 127 90 C 95 121 70 158 52 200 C 34 242 25 288 25 336 C 25 384 34 429 52 472 C 70 514 95 551 127 583 C 158 614 195 639 237 657 C 279 675 325 685 373 685 C 421 685 466 675 509 657 C 551 639 588 614 620 583 C 651 551 676 514 694 472 C 712 429 722 384 722 336 C 722 288 712 242 694 200 C 676 158 651 121 620 90 C 588 58 551 33 509 15 C 466 -2 421 -12 373 -12 Z M 373 70 C 409 70 444 76 477 90 C 509 104 538 123 562 147 C 586 171 605 199 619 231 C 633 263 640 298 640 336 C 640 372 633 407 619 440 C 605 472 586 501 562 525 C 538 549 509 568 477 582 C 444 596 409 603 373 603 C 335 603 300 596 268 582 C 236 568 208 549 184 525 C 160 501 141 472 127 440 C 113 407 107 372 107 336 C 107 298 113 263 127 231 C 141 199 160 171 184 147 C 208 123 236 104 268 90 C 300 76 335 70 373 70 Z" horiz-adv-x="747" />
<glyph unicode="«" d="M 45 336 L 237 587 L 133 336 L 237 85 L 45 336 Z M 197 336 L 388 587 L 285 336 L 388 85 L 197 336 Z" horiz-adv-x="413" />
<glyph unicode="¬" d="M 553 239 L 0 239 L 0 352 L 667 352 L 667 0 L 553 0 L 553 239 Z" horiz-adv-x="667" />
<glyph unicode="­" d="M 24 314 L 307 314 L 307 200 L 24 200 L 24 314 Z" horiz-adv-x="327" />
<glyph unicode="®" d="M 158 440 C 141 440 125 443 111 449 C 96 455 83 464 72 475 C 61 486 52 499 46 514 C 40 528 37 544 37 561 C 37 577 40 593 46 608 C 52 622 61 635 72 646 C 83 657 96 666 111 672 C 125 678 141 682 158 682 C 174 682 190 678 205 672 C 219 666 232 657 243 646 C 254 635 263 622 269 608 C 275 593 279 577 279 561 C 279 544 275 528 269 514 C 263 499 254 486 243 475 C 232 464 219 455 205 449 C 190 443 174 440 158 440 Z M 158 469 C 184 469 205 477 223 495 C 241 513 250 535 250 561 C 250 587 241 608 223 626 C 205 644 184 653 158 653 C 132 653 110 644 92 626 C 74 608 66 587 66 561 C 66 535 74 513 92 495 C 110 477 132 469 158 469 Z M 113 622 L 168 622 C 181 622 192 617 200 609 C 208 600 212 589 212 577 C 212 568 209 560 204 554 C 199 547 193 542 186 538 L 185 538 C 185 537 186 536 187 536 C 187 536 188 535 189 534 C 194 528 199 523 204 517 C 209 511 214 505 220 500 L 182 500 L 157 529 C 155 530 154 531 153 532 C 152 533 150 534 148 534 C 145 534 143 533 142 531 C 141 529 141 527 141 525 L 141 500 L 113 500 L 113 622 Z M 141 557 C 142 558 144 559 147 560 C 150 560 153 561 155 561 L 168 561 C 172 561 175 562 178 565 C 181 567 183 571 183 577 C 183 581 181 585 179 589 C 176 593 172 595 168 595 L 141 595 L 141 557 Z" horiz-adv-x="316" />
<glyph unicode="°" d="M 149 503 C 134 503 120 505 108 511 C 95 516 84 523 75 533 C 65 543 58 554 53 567 C 47 579 45 593 45 608 C 45 622 47 635 53 648 C 58 660 65 671 75 681 C 85 691 96 698 109 704 C 121 709 135 712 149 712 C 163 712 176 709 189 704 C 202 698 213 691 223 682 C 232 672 239 661 245 649 C 251 636 254 622 254 608 C 254 593 251 579 245 567 C 239 554 232 543 223 533 C 213 523 202 516 190 511 C 177 505 163 503 149 503 Z M 149 562 C 161 562 172 566 181 575 C 190 584 195 595 195 608 C 195 620 190 631 181 640 C 171 648 161 653 149 653 C 137 653 126 648 117 639 C 108 630 104 620 104 608 C 104 595 108 584 117 575 C 125 566 136 562 149 562 Z" horiz-adv-x="299" />
<glyph unicode="±" d="M 234 363 L 45 363 L 45 483 L 234 483 L 234 672 L 354 672 L 354 483 L 543 483 L 543 363 L 354 363 L 354 173 L 234 173 L 234 363 Z M 45 119 L 542 119 L 542 0 L 45 0 L 45 119 Z" horiz-adv-x="588" />
<glyph unicode="´" d="M 133 672 L 288 672 L 127 531 L 25 531 L 133 672 Z" horiz-adv-x="313" />
<glyph unicode="¶" d="M 233 295 C 207 295 182 299 159 309 C 136 319 116 332 99 349 C 82 366 69 386 59 409 C 49 432 45 457 45 483 C 45 509 49 533 59 556 C 69 579 82 599 99 616 C 116 633 136 647 159 657 C 182 667 207 672 233 672 L 513 672 L 513 604 L 443 604 L 443 0 L 369 0 L 369 604 L 308 604 L 308 0 L 233 0 L 233 295 Z" horiz-adv-x="558" />
<glyph unicode="·" d="M 133 204 C 107 204 86 212 70 228 C 53 244 45 266 45 292 C 45 316 53 336 69 354 C 85 371 106 380 131 380 C 155 380 176 371 193 354 C 209 336 218 316 218 292 C 218 280 215 268 211 258 C 207 247 201 238 193 230 C 185 222 176 215 166 211 C 156 206 145 204 133 204 Z" horiz-adv-x="263" />
<glyph unicode="»" d="M 280 336 L 176 587 L 368 336 L 176 85 L 280 336 Z M 128 336 L 25 587 L 216 336 L 25 85 L 128 336 Z" horiz-adv-x="413" />
<glyph unicode="¿" d="M 201 672 L 321 672 L 321 548 L 201 548 L 201 672 Z M 250 -17 C 219 -17 190 -11 163 0 C 135 10 111 25 91 45 C 71 65 55 88 43 114 C 31 140 25 169 25 201 C 25 229 29 253 38 275 C 46 296 57 315 70 331 C 83 347 97 362 113 374 C 128 386 142 398 155 408 C 168 418 179 429 188 439 C 196 449 201 459 201 471 L 201 501 L 321 501 L 321 478 C 321 449 316 425 308 405 C 299 385 288 368 275 354 C 262 340 248 327 233 317 C 217 307 203 296 190 285 C 177 274 166 262 158 249 C 149 236 145 220 145 201 C 145 170 154 145 174 126 C 194 106 219 97 250 97 C 280 97 305 106 325 126 C 345 145 355 170 355 201 L 355 224 L 475 224 L 475 201 C 475 169 469 140 457 114 C 445 88 428 65 408 45 C 387 25 363 10 336 0 C 309 -11 280 -17 250 -17 Z" horiz-adv-x="500" />
<glyph unicode="À" d="M 280 672 L 412 672 L 667 0 L 534 0 L 479 144 L 323 144 C 292 144 264 138 239 128 C 214 117 196 96 184 66 L 158 0 L 25 0 L 280 672 Z M 252 248 C 262 254 273 258 283 260 C 293 261 304 262 316 262 L 434 262 L 346 496 L 252 248 Z M 137 841 L 291 841 L 400 700 L 298 700 L 137 841 Z" horiz-adv-x="692" />
<glyph unicode="Á" d="M 280 672 L 412 672 L 667 0 L 534 0 L 479 144 L 323 144 C 292 144 264 138 239 128 C 214 117 196 96 184 66 L 158 0 L 25 0 L 280 672 Z M 252 248 C 262 254 273 258 283 260 C 293 261 304 262 316 262 L 434 262 L 346 496 L 252 248 Z M 392 841 L 547 841 L 386 700 L 284 700 L 392 841 Z" horiz-adv-x="692" />
<glyph unicode="Ã" d="M 280 672 L 412 672 L 667 0 L 534 0 L 479 144 L 323 144 C 292 144 264 138 239 128 C 214 117 196 96 184 66 L 158 0 L 25 0 L 280 672 Z M 252 248 C 262 254 273 258 283 260 C 293 261 304 262 316 262 L 434 262 L 346 496 L 252 248 Z M 162 694 C 162 708 165 722 170 736 C 175 749 182 761 191 771 C 200 781 211 789 223 795 C 235 801 250 804 266 804 C 282 804 297 802 310 798 C 323 794 335 790 347 786 C 358 782 369 778 379 774 C 389 770 400 769 410 769 C 423 769 433 772 440 779 C 447 786 452 796 456 808 L 530 808 C 527 792 524 778 520 764 C 516 750 510 737 503 727 C 495 716 485 708 473 702 C 461 696 445 693 425 693 C 413 693 400 695 386 699 C 372 703 359 707 346 712 C 332 716 319 721 307 725 C 295 729 284 731 275 731 C 265 731 257 727 249 719 C 241 711 237 703 237 694 L 162 694 Z" horiz-adv-x="692" />
<glyph unicode="È" d="M 45 672 L 515 672 L 515 554 L 169 554 L 169 367 C 180 377 194 385 210 389 C 226 393 241 395 256 395 L 515 395 L 515 277 L 256 277 C 230 277 209 268 193 252 C 177 236 169 215 169 190 L 169 118 L 515 118 L 515 0 L 45 0 L 45 672 Z M 120 841 L 274 841 L 383 700 L 281 700 L 120 841 Z" horiz-adv-x="560" />
<glyph unicode="É" d="M 304 841 L 459 841 L 298 700 L 196 700 L 304 841 Z M 45 672 L 515 672 L 515 554 L 169 554 L 169 367 C 180 377 194 385 210 389 C 226 393 241 395 256 395 L 515 395 L 515 277 L 256 277 C 230 277 209 268 193 252 C 177 236 169 215 169 190 L 169 118 L 515 118 L 515 0 L 45 0 L 45 672 Z" horiz-adv-x="560" />
<glyph unicode="Ì" d="M 60 672 L 184 672 L 184 0 L 60 0 L 60 672 Z M -92 838 L 62 838 L 171 697 L 69 697 L -92 838 Z" horiz-adv-x="244" />
<glyph unicode="Í" d="M 60 672 L 184 672 L 184 0 L 60 0 L 60 672 Z M 181 838 L 336 838 L 175 697 L 73 697 L 181 838 Z" horiz-adv-x="244" />
<glyph unicode="Ñ" d="M 45 672 L 183 672 L 468 145 L 475 133 L 475 672 L 599 672 L 599 0 L 510 0 C 471 0 440 8 417 25 C 394 41 374 66 356 100 L 169 443 L 169 0 L 45 0 L 45 672 Z M 133 694 C 133 708 136 722 141 736 C 146 749 153 761 162 771 C 171 781 182 789 194 795 C 206 801 221 804 237 804 C 253 804 268 802 281 798 C 294 794 306 790 318 786 C 329 782 340 778 350 774 C 360 770 371 769 381 769 C 394 769 404 772 411 779 C 418 786 423 796 427 808 L 501 808 C 498 792 495 778 491 764 C 487 750 481 737 474 727 C 466 716 456 708 444 702 C 432 696 416 693 396 693 C 384 693 371 695 357 699 C 343 703 330 707 317 712 C 303 716 290 721 278 725 C 266 729 255 731 246 731 C 236 731 228 727 220 719 C 212 711 208 703 208 694 L 133 694 Z" horiz-adv-x="644" />
<glyph unicode="Ò" d="M 374 -12 C 326 -12 280 -2 238 15 C 196 33 159 58 127 90 C 95 121 70 158 52 200 C 34 242 25 288 25 336 C 25 384 34 429 52 471 C 70 513 95 550 127 582 C 159 614 196 639 238 657 C 280 675 326 685 374 685 C 422 685 467 675 509 657 C 551 639 588 614 620 582 C 651 550 676 513 694 471 C 712 429 722 384 722 336 C 722 288 712 242 694 200 C 676 158 651 121 620 90 C 588 58 551 33 509 15 C 467 -2 422 -12 374 -12 Z M 374 106 C 406 106 436 112 464 124 C 491 136 515 152 535 173 C 555 193 570 218 581 246 C 592 274 598 304 598 336 C 598 368 592 398 581 426 C 570 454 555 479 535 500 C 515 520 491 537 464 549 C 436 561 406 567 374 567 C 341 567 311 561 284 549 C 256 537 233 520 213 500 C 193 479 177 454 166 426 C 155 398 150 368 150 336 C 150 304 155 274 166 246 C 177 218 193 193 213 173 C 233 152 256 136 284 124 C 311 112 341 106 374 106 Z M 167 851 L 321 851 L 430 710 L 328 710 L 167 851 Z" horiz-adv-x="747" />
<glyph unicode="Ó" d="M 417 848 L 572 848 L 411 707 L 309 707 L 417 848 Z M 374 -12 C 326 -12 280 -2 238 15 C 196 33 159 58 127 90 C 95 121 70 158 52 200 C 34 242 25 288 25 336 C 25 384 34 429 52 471 C 70 513 95 550 127 582 C 159 614 196 639 238 657 C 280 675 326 685 374 685 C 422 685 467 675 509 657 C 551 639 588 614 620 582 C 651 550 676 513 694 471 C 712 429 722 384 722 336 C 722 288 712 242 694 200 C 676 158 651 121 620 90 C 588 58 551 33 509 15 C 467 -2 422 -12 374 -12 Z M 374 106 C 406 106 436 112 464 124 C 491 136 515 152 535 173 C 555 193 570 218 581 246 C 592 274 598 304 598 336 C 598 368 592 398 581 426 C 570 454 555 479 535 500 C 515 520 491 537 464 549 C 436 561 406 567 374 567 C 341 567 311 561 284 549 C 256 537 233 520 213 500 C 193 479 177 454 166 426 C 155 398 150 368 150 336 C 150 304 155 274 166 246 C 177 218 193 193 213 173 C 233 152 256 136 284 124 C 311 112 341 106 374 106 Z" horiz-adv-x="747" />
<glyph unicode="Õ" d="M 374 -12 C 326 -12 280 -2 238 15 C 196 33 159 58 127 90 C 95 121 70 158 52 200 C 34 242 25 288 25 336 C 25 384 34 429 52 471 C 70 513 95 550 127 582 C 159 614 196 639 238 657 C 280 675 326 685 374 685 C 422 685 467 675 509 657 C 551 639 588 614 620 582 C 651 550 676 513 694 471 C 712 429 722 384 722 336 C 722 288 712 242 694 200 C 676 158 651 121 620 90 C 588 58 551 33 509 15 C 467 -2 422 -12 374 -12 Z M 374 106 C 406 106 436 112 464 124 C 491 136 515 152 535 173 C 555 193 570 218 581 246 C 592 274 598 304 598 336 C 598 368 592 398 581 426 C 570 454 555 479 535 500 C 515 520 491 537 464 549 C 436 561 406 567 374 567 C 341 567 311 561 284 549 C 256 537 233 520 213 500 C 193 479 177 454 166 426 C 155 398 150 368 150 336 C 150 304 155 274 166 246 C 177 218 193 193 213 173 C 233 152 256 136 284 124 C 311 112 341 106 374 106 Z M 190 704 C 190 718 193 732 198 746 C 203 759 210 771 219 781 C 228 791 239 799 251 805 C 263 811 278 814 294 814 C 310 814 325 812 338 808 C 351 804 363 800 375 796 C 386 792 397 788 407 784 C 417 780 428 779 438 779 C 451 779 461 782 468 789 C 475 796 480 806 484 818 L 558 818 C 555 802 552 788 548 774 C 544 760 538 747 531 737 C 523 726 513 718 501 712 C 489 706 473 703 453 703 C 441 703 428 705 414 709 C 400 713 387 717 374 722 C 360 726 347 731 335 735 C 323 739 312 741 303 741 C 293 741 285 737 277 729 C 269 721 265 713 265 704 L 190 704 Z" horiz-adv-x="747" />
<glyph unicode="×" d="M 45 87 L 212 254 L 45 421 L 133 508 L 300 342 L 467 508 L 555 421 L 388 254 L 555 87 L 467 -1 L 300 166 L 133 -1 L 45 87 Z" horiz-adv-x="600" />
<glyph unicode="Ø" d="M 44 40 L 110 109 C 83 139 62 174 47 212 C 32 250 25 292 25 336 C 25 384 34 429 52 471 C 70 513 95 550 127 582 C 159 614 196 639 238 657 C 280 675 326 685 374 685 C 414 685 452 678 488 665 C 524 652 557 634 587 611 L 652 679 L 701 633 L 636 565 C 662 533 683 498 699 460 C 714 421 722 380 722 336 C 722 288 712 242 694 200 C 676 158 651 121 620 90 C 588 58 551 33 509 15 C 467 -2 422 -12 374 -12 C 333 -12 294 -5 258 7 C 222 20 189 38 159 62 L 94 -7 L 44 40 Z M 374 106 C 406 106 436 112 464 124 C 491 136 515 152 535 173 C 555 193 570 218 581 246 C 592 274 598 304 598 336 C 598 362 594 388 586 412 C 578 436 567 457 553 477 L 241 148 C 278 120 322 106 374 106 Z M 150 336 C 150 282 164 236 193 196 L 506 525 C 468 553 424 567 374 567 C 341 567 311 561 284 549 C 256 537 233 520 213 500 C 193 479 177 454 166 426 C 155 398 150 368 150 336 Z" horiz-adv-x="747" />
<glyph unicode="Ù" d="M 327 -10 C 288 -10 251 -2 217 12 C 183 27 153 47 128 73 C 102 98 82 128 67 162 C 52 196 45 233 45 272 L 45 672 L 169 672 L 169 266 C 169 244 173 223 181 204 C 189 185 201 168 215 154 C 229 140 246 128 265 120 C 284 112 305 108 327 108 C 349 108 369 112 388 120 C 407 128 424 140 438 154 C 452 168 464 185 472 204 C 480 223 485 244 485 266 L 485 672 L 609 672 L 609 272 C 609 233 601 196 586 162 C 571 128 551 98 526 73 C 500 47 470 27 436 12 C 402 -2 365 -10 327 -10 Z M 140 829 L 294 829 L 403 688 L 301 688 L 140 829 Z" horiz-adv-x="654" />
<glyph unicode="Ú" d="M 354 829 L 509 829 L 348 688 L 246 688 L 354 829 Z M 327 -10 C 288 -10 251 -2 217 12 C 183 27 153 47 128 73 C 102 98 82 128 67 162 C 52 196 45 233 45 272 L 45 672 L 169 672 L 169 266 C 169 244 173 223 181 204 C 189 185 201 168 215 154 C 229 140 246 128 265 120 C 284 112 305 108 327 108 C 349 108 369 112 388 120 C 407 128 424 140 438 154 C 452 168 464 185 472 204 C 480 223 485 244 485 266 L 485 672 L 609 672 L 609 272 C 609 233 601 196 586 162 C 571 128 551 98 526 73 C 500 47 470 27 436 12 C 402 -2 365 -10 327 -10 Z" horiz-adv-x="654" />
<glyph unicode="Ý" d="M 344 188 C 306 191 275 201 250 217 C 224 233 204 259 189 294 L 25 672 L 159 672 L 288 355 C 297 333 310 319 328 313 C 345 307 364 304 386 304 L 521 672 L 653 672 L 407 0 L 275 0 L 344 188 Z M 325 838 L 480 838 L 319 697 L 217 697 L 325 838 Z" horiz-adv-x="678" />
<glyph unicode="à" d="M 281 -20 C 245 -20 211 -13 180 0 C 149 12 122 30 99 52 C 76 74 58 101 45 132 C 31 163 25 197 25 233 C 25 267 31 300 44 331 C 57 362 75 389 98 412 C 121 435 148 453 178 467 C 208 480 241 486 277 486 C 299 486 317 483 333 479 C 348 475 361 470 372 465 C 382 459 391 454 398 450 C 405 446 412 444 418 444 L 418 466 L 538 466 L 538 127 C 538 113 541 101 548 91 C 554 81 562 71 572 62 L 488 -23 C 485 -20 481 -16 477 -12 C 473 -7 468 -2 463 2 C 458 6 453 10 449 14 C 444 17 440 19 436 19 C 428 19 420 17 412 13 C 404 9 395 4 384 0 C 373 -5 359 -10 343 -14 C 327 -18 306 -20 281 -20 Z M 281 93 C 296 93 310 95 324 99 C 337 103 350 108 362 113 C 374 118 385 122 395 126 C 405 130 415 131 424 129 C 420 137 418 145 418 153 C 418 161 418 170 418 178 L 418 331 C 404 332 393 335 383 339 C 373 343 364 348 354 353 C 344 358 334 362 322 366 C 310 370 297 372 281 372 C 239 372 206 359 181 333 C 156 307 144 273 144 233 C 144 192 156 158 181 132 C 206 106 239 93 281 93 Z M 116 672 L 270 672 L 379 531 L 277 531 L 116 672 Z" horiz-adv-x="597" />
<glyph unicode="á" d="M 281 -20 C 245 -20 211 -13 180 0 C 149 12 122 30 99 52 C 76 74 58 101 45 132 C 31 163 25 197 25 233 C 25 267 31 300 44 331 C 57 362 75 389 98 412 C 121 435 148 453 178 467 C 208 480 241 486 277 486 C 299 486 317 483 333 479 C 348 475 361 470 372 465 C 382 459 391 454 398 450 C 405 446 412 444 418 444 L 418 466 L 538 466 L 538 127 C 538 113 541 101 548 91 C 554 81 562 71 572 62 L 488 -23 C 485 -20 481 -16 477 -12 C 473 -7 468 -2 463 2 C 458 6 453 10 449 14 C 444 17 440 19 436 19 C 428 19 420 17 412 13 C 404 9 395 4 384 0 C 373 -5 359 -10 343 -14 C 327 -18 306 -20 281 -20 Z M 281 93 C 296 93 310 95 324 99 C 337 103 350 108 362 113 C 374 118 385 122 395 126 C 405 130 415 131 424 129 C 420 137 418 145 418 153 C 418 161 418 170 418 178 L 418 331 C 404 332 393 335 383 339 C 373 343 364 348 354 353 C 344 358 334 362 322 366 C 310 370 297 372 281 372 C 239 372 206 359 181 333 C 156 307 144 273 144 233 C 144 192 156 158 181 132 C 206 106 239 93 281 93 Z M 287 672 L 442 672 L 281 531 L 179 531 L 287 672 Z" horiz-adv-x="597" />
<glyph unicode="ã" d="M 281 -20 C 245 -20 211 -13 180 0 C 149 12 122 30 99 52 C 76 74 58 101 45 132 C 31 163 25 197 25 233 C 25 267 31 300 44 331 C 57 362 75 389 98 412 C 121 435 148 453 178 467 C 208 480 241 486 277 486 C 299 486 317 483 333 479 C 348 475 361 470 372 465 C 382 459 391 454 398 450 C 405 446 412 444 418 444 L 418 466 L 538 466 L 538 127 C 538 113 541 101 548 91 C 554 81 562 71 572 62 L 488 -23 C 485 -20 481 -16 477 -12 C 473 -7 468 -2 463 2 C 458 6 453 10 449 14 C 444 17 440 19 436 19 C 428 19 420 17 412 13 C 404 9 395 4 384 0 C 373 -5 359 -10 343 -14 C 327 -18 306 -20 281 -20 Z M 281 93 C 296 93 310 95 324 99 C 337 103 350 108 362 113 C 374 118 385 122 395 126 C 405 130 415 131 424 129 C 420 137 418 145 418 153 C 418 161 418 170 418 178 L 418 331 C 404 332 393 335 383 339 C 373 343 364 348 354 353 C 344 358 334 362 322 366 C 310 370 297 372 281 372 C 239 372 206 359 181 333 C 156 307 144 273 144 233 C 144 192 156 158 181 132 C 206 106 239 93 281 93 Z M 101 558 C 101 572 104 586 109 600 C 114 613 121 625 130 635 C 139 645 150 653 162 659 C 174 665 189 668 205 668 C 221 668 236 666 249 662 C 262 658 274 654 286 650 C 297 646 308 642 318 638 C 328 634 339 633 349 633 C 362 633 372 636 379 643 C 386 650 391 660 395 672 L 469 672 C 466 656 463 642 459 628 C 455 614 449 601 442 591 C 434 580 424 572 412 566 C 400 560 384 557 364 557 C 352 557 339 559 325 563 C 311 567 298 571 285 576 C 271 580 258 585 246 589 C 234 593 223 595 214 595 C 204 595 196 591 188 583 C 180 575 176 567 176 558 L 101 558 Z" horiz-adv-x="597" />
<glyph unicode="è" d="M 281 -20 C 245 -20 212 -13 181 0 C 150 12 123 30 100 53 C 76 75 58 102 45 133 C 31 164 25 197 25 233 C 25 268 31 301 45 332 C 58 362 76 389 100 412 C 123 434 150 452 181 465 C 212 478 245 485 281 485 C 314 485 346 478 377 466 C 407 454 434 437 458 415 C 482 393 501 368 515 338 C 529 308 537 277 537 243 C 537 232 536 222 536 212 C 536 202 534 191 532 181 L 205 181 C 197 181 190 179 184 175 C 177 171 174 164 174 156 C 174 150 175 145 179 140 C 190 124 205 112 224 104 C 243 96 262 93 281 93 C 300 93 318 96 336 103 C 354 110 369 121 383 137 L 518 137 C 498 87 466 49 424 21 C 381 -6 333 -20 281 -20 Z M 145 262 C 156 271 168 277 180 280 C 192 283 205 285 219 285 L 407 285 C 397 312 382 333 361 349 C 339 364 313 372 281 372 C 264 372 248 369 232 364 C 216 359 202 352 190 343 C 178 333 168 322 160 308 C 152 294 147 279 145 262 Z M 85 672 L 239 672 L 348 531 L 246 531 L 85 672 Z" horiz-adv-x="562" />
<glyph unicode="é" d="M 293 672 L 448 672 L 287 531 L 185 531 L 293 672 Z M 281 -20 C 245 -20 212 -13 181 0 C 150 12 123 30 100 53 C 76 75 58 102 45 133 C 31 164 25 197 25 233 C 25 268 31 301 45 332 C 58 362 76 389 100 412 C 123 434 150 452 181 465 C 212 478 245 485 281 485 C 314 485 346 478 377 466 C 407 454 434 437 458 415 C 482 393 501 368 515 338 C 529 308 537 277 537 243 C 537 232 536 222 536 212 C 536 202 534 191 532 181 L 205 181 C 197 181 190 179 184 175 C 177 171 174 164 174 156 C 174 150 175 145 179 140 C 190 124 205 112 224 104 C 243 96 262 93 281 93 C 300 93 318 96 336 103 C 354 110 369 121 383 137 L 518 137 C 498 87 466 49 424 21 C 381 -6 333 -20 281 -20 Z M 145 262 C 156 271 168 277 180 280 C 192 283 205 285 219 285 L 407 285 C 397 312 382 333 361 349 C 339 364 313 372 281 372 C 264 372 248 369 232 364 C 216 359 202 352 190 343 C 178 333 168 322 160 308 C 152 294 147 279 145 262 Z" horiz-adv-x="562" />
<glyph unicode="ì" d="M 60 466 L 180 466 L 180 0 L 60 0 L 60 466 Z M -83 672 L 71 672 L 180 531 L 78 531 L -83 672 Z" horiz-adv-x="240" />
<glyph unicode="í" d="M 171 672 L 326 672 L 165 531 L 63 531 L 171 672 Z M 60 466 L 180 466 L 180 0 L 60 0 L 60 466 Z" horiz-adv-x="240" />
<glyph unicode="ñ" d="M 45 466 L 165 466 L 165 441 C 172 441 180 443 189 448 C 198 452 208 457 220 463 C 232 469 245 474 259 479 C 273 483 290 486 308 486 C 335 486 361 482 386 472 C 411 462 433 448 453 430 C 472 412 487 389 499 363 C 511 337 517 307 517 275 L 517 0 L 398 0 L 398 270 C 398 298 389 323 371 343 C 353 363 329 374 299 374 C 288 374 277 371 267 366 C 256 361 245 356 234 350 C 223 344 212 338 200 333 C 188 328 177 326 165 326 L 165 0 L 45 0 L 45 466 Z M 84 558 C 84 572 87 586 92 600 C 97 613 104 625 113 635 C 122 645 133 653 145 659 C 157 665 172 668 188 668 C 204 668 219 666 232 662 C 245 658 257 654 269 650 C 280 646 291 642 301 638 C 311 634 322 633 332 633 C 345 633 355 636 362 643 C 369 650 374 660 378 672 L 452 672 C 449 656 446 642 442 628 C 438 614 432 601 425 591 C 417 580 407 572 395 566 C 383 560 367 557 347 557 C 335 557 322 559 308 563 C 294 567 281 571 268 576 C 254 580 241 585 229 589 C 217 593 206 595 197 595 C 187 595 179 591 171 583 C 163 575 159 567 159 558 L 84 558 Z" horiz-adv-x="562" />
<glyph unicode="ò" d="M 281 -20 C 246 -20 213 -13 182 0 C 151 13 124 31 101 54 C 77 77 59 104 45 135 C 31 165 25 198 25 233 C 25 267 31 300 45 331 C 59 361 77 388 101 411 C 124 433 151 451 182 465 C 213 478 246 485 281 485 C 315 485 347 478 378 465 C 409 451 436 433 460 411 C 484 388 502 361 516 331 C 530 300 537 267 537 233 C 537 198 530 165 516 135 C 502 104 484 77 461 54 C 437 31 410 13 379 0 C 348 -13 315 -20 281 -20 Z M 281 93 C 301 93 319 96 336 104 C 352 111 367 121 379 134 C 391 146 400 161 407 178 C 413 195 417 213 417 233 C 417 252 413 270 406 287 C 399 304 390 319 378 331 C 366 343 351 353 335 361 C 318 368 300 372 281 372 C 261 372 243 368 227 361 C 210 353 195 343 183 331 C 171 319 161 304 154 287 C 147 270 144 252 144 233 C 144 213 147 195 154 178 C 161 161 171 146 183 134 C 195 121 210 111 227 104 C 243 96 261 93 281 93 Z M 71 672 L 225 672 L 334 531 L 232 531 L 71 672 Z" horiz-adv-x="562" />
<glyph unicode="ó" d="M 317 672 L 472 672 L 311 531 L 209 531 L 317 672 Z M 281 -20 C 246 -20 213 -13 182 0 C 151 13 124 31 101 54 C 77 77 59 104 45 135 C 31 165 25 198 25 233 C 25 267 31 300 45 331 C 59 361 77 388 101 411 C 124 433 151 451 182 465 C 213 478 246 485 281 485 C 315 485 347 478 378 465 C 409 451 436 433 460 411 C 484 388 502 361 516 331 C 530 300 537 267 537 233 C 537 198 530 165 516 135 C 502 104 484 77 461 54 C 437 31 410 13 379 0 C 348 -13 315 -20 281 -20 Z M 281 93 C 301 93 319 96 336 104 C 352 111 367 121 379 134 C 391 146 400 161 407 178 C 413 195 417 213 417 233 C 417 252 413 270 406 287 C 399 304 390 319 378 331 C 366 343 351 353 335 361 C 318 368 300 372 281 372 C 261 372 243 368 227 361 C 210 353 195 343 183 331 C 171 319 161 304 154 287 C 147 270 144 252 144 233 C 144 213 147 195 154 178 C 161 161 171 146 183 134 C 195 121 210 111 227 104 C 243 96 261 93 281 93 Z" horiz-adv-x="562" />
<glyph unicode="õ" d="M 281 -20 C 246 -20 213 -13 182 0 C 151 13 124 31 101 54 C 77 77 59 104 45 135 C 31 165 25 198 25 233 C 25 267 31 300 45 331 C 59 361 77 388 101 411 C 124 433 151 451 182 465 C 213 478 246 485 281 485 C 315 485 347 478 378 465 C 409 451 436 433 460 411 C 484 388 502 361 516 331 C 530 300 537 267 537 233 C 537 198 530 165 516 135 C 502 104 484 77 461 54 C 437 31 410 13 379 0 C 348 -13 315 -20 281 -20 Z M 281 93 C 301 93 319 96 336 104 C 352 111 367 121 379 134 C 391 146 400 161 407 178 C 413 195 417 213 417 233 C 417 252 413 270 406 287 C 399 304 390 319 378 331 C 366 343 351 353 335 361 C 318 368 300 372 281 372 C 261 372 243 368 227 361 C 210 353 195 343 183 331 C 171 319 161 304 154 287 C 147 270 144 252 144 233 C 144 213 147 195 154 178 C 161 161 171 146 183 134 C 195 121 210 111 227 104 C 243 96 261 93 281 93 Z M 92 558 C 92 572 95 586 100 600 C 105 613 112 625 121 635 C 130 645 141 653 153 659 C 165 665 180 668 196 668 C 212 668 227 666 240 662 C 253 658 265 654 277 650 C 288 646 299 642 309 638 C 319 634 330 633 340 633 C 353 633 363 636 370 643 C 377 650 382 660 386 672 L 460 672 C 457 656 454 642 450 628 C 446 614 440 601 433 591 C 425 580 415 572 403 566 C 391 560 375 557 355 557 C 343 557 330 559 316 563 C 302 567 289 571 276 576 C 262 580 249 585 237 589 C 225 593 214 595 205 595 C 195 595 187 591 179 583 C 171 575 167 567 167 558 L 92 558 Z" horiz-adv-x="562" />
<glyph unicode="÷" d="M 45 317 L 559 317 L 559 198 L 45 198 L 45 317 Z M 241 124 L 361 124 L 361 0 L 241 0 L 241 124 Z M 241 514 L 361 514 L 361 390 L 241 390 L 241 514 Z" horiz-adv-x="604" />
<glyph unicode="ù" d="M 262 -20 C 230 -20 201 -14 175 -2 C 149 9 126 25 107 45 C 87 65 72 88 61 115 C 50 142 45 171 45 202 L 45 466 L 165 466 L 165 196 C 165 167 173 143 191 123 C 208 103 232 94 262 94 C 276 94 288 95 299 99 C 309 103 319 107 329 112 C 339 116 349 121 359 125 C 369 129 381 132 395 134 L 395 466 L 514 466 L 514 131 C 514 113 518 100 526 91 C 534 82 543 72 555 62 L 473 -20 C 470 -17 466 -13 462 -9 C 458 -4 453 0 448 5 C 443 9 438 13 433 17 C 428 20 423 22 419 22 C 411 22 403 19 393 15 C 383 11 372 6 360 1 C 347 -4 333 -9 317 -13 C 301 -17 282 -20 262 -20 Z M 102 672 L 256 672 L 365 531 L 263 531 L 102 672 Z" horiz-adv-x="580" />
<glyph unicode="ú" d="M 262 -20 C 230 -20 201 -14 175 -2 C 149 9 126 25 107 45 C 87 65 72 88 61 115 C 50 142 45 171 45 202 L 45 466 L 165 466 L 165 196 C 165 167 173 143 191 123 C 208 103 232 94 262 94 C 276 94 288 95 299 99 C 309 103 319 107 329 112 C 339 116 349 121 359 125 C 369 129 381 132 395 134 L 395 466 L 514 466 L 514 131 C 514 113 518 100 526 91 C 534 82 543 72 555 62 L 473 -20 C 470 -17 466 -13 462 -9 C 458 -4 453 0 448 5 C 443 9 438 13 433 17 C 428 20 423 22 419 22 C 411 22 403 19 393 15 C 383 11 372 6 360 1 C 347 -4 333 -9 317 -13 C 301 -17 282 -20 262 -20 Z M 282 672 L 437 672 L 276 531 L 174 531 L 282 672 Z" horiz-adv-x="580" />
<glyph unicode="ý" d="M 151 -86 C 167 -86 181 -85 191 -83 C 201 -81 210 -79 216 -75 C 222 -71 228 -65 232 -58 C 236 -51 240 -42 245 -31 L 257 0 C 238 7 221 19 205 37 C 189 54 177 72 170 91 L 25 466 L 154 466 L 281 138 C 283 132 285 127 289 122 C 292 116 297 113 303 111 L 446 466 L 575 466 C 539 376 505 294 474 218 C 460 185 447 152 434 119 C 420 86 408 55 396 26 C 384 -2 373 -28 364 -50 C 354 -72 347 -90 343 -102 C 327 -139 305 -166 275 -182 C 245 -198 211 -206 173 -206 L 151 -206 L 151 -86 Z M 292 672 L 447 672 L 286 531 L 184 531 L 292 672 Z" horiz-adv-x="600" />
<glyph unicode="ı" d="M 60 466 L 180 466 L 180 0 L 60 0 L 60 466 Z" horiz-adv-x="240" />
<glyph unicode="ƒ" d="M 25 -93 C 35 -93 44 -92 54 -92 C 64 -92 73 -90 81 -87 C 89 -84 95 -79 100 -73 C 105 -66 108 -56 108 -43 L 108 302 C 108 320 111 339 118 359 C 124 379 136 394 153 405 C 139 418 128 434 120 454 C 112 474 108 493 108 513 C 108 537 112 558 120 578 C 128 597 139 614 154 628 C 168 642 186 652 206 660 C 226 668 247 672 271 672 L 359 672 L 359 558 L 271 558 C 259 558 248 553 240 544 C 231 534 227 524 227 512 C 227 500 231 489 240 479 C 248 469 259 465 271 465 L 359 465 L 359 352 L 271 352 C 259 352 248 347 240 339 C 231 330 227 320 227 308 L 227 -48 C 227 -71 222 -92 214 -112 C 206 -131 194 -148 180 -162 C 165 -176 148 -187 128 -195 C 108 -203 86 -207 64 -207 L 25 -207 L 25 -93 Z" horiz-adv-x="384" />
<glyph unicode="ˆ" d="M 140 673 L 260 673 L 375 527 L 278 527 L 200 625 L 123 527 L 25 527 L 140 673 Z" horiz-adv-x="400" />
<glyph unicode="ˇ" d="M 25 646 L 122 646 L 200 548 L 277 646 L 375 646 L 260 500 L 140 500 L 25 646 Z" horiz-adv-x="400" />
<glyph unicode="˜" d="M 25 558 C 25 572 28 586 33 600 C 38 613 45 625 54 635 C 63 645 74 653 86 659 C 98 665 113 668 129 668 C 145 668 160 666 173 662 C 186 658 198 654 210 650 C 221 646 232 642 242 638 C 252 634 263 633 273 633 C 286 633 296 636 303 643 C 310 650 315 660 319 672 L 393 672 C 390 656 387 642 383 628 C 379 614 373 601 366 591 C 358 580 348 572 336 566 C 324 560 308 557 288 557 C 276 557 263 559 249 563 C 235 567 222 571 209 576 C 195 580 182 585 170 589 C 158 593 147 595 138 595 C 128 595 120 591 112 583 C 104 575 100 567 100 558 L 25 558 L 25 558 Z" horiz-adv-x="418" />
<glyph unicode="–" d="M 45 314 L 559 314 L 559 200 L 45 200 L 45 314 Z" horiz-adv-x="604" />
<glyph unicode="—" d="M 0 314 L 812 314 L 812 200 L 0 200 L 0 314 Z" horiz-adv-x="812" />
<glyph unicode="‘" d="M 25 556 C 25 594 35 621 56 639 C 77 657 106 668 143 672 L 143 606 C 129 605 117 601 107 594 C 96 586 91 573 91 553 L 145 553 L 145 430 L 25 430 L 25 556 Z" horiz-adv-x="170" />
<glyph unicode="’" d="M 27 495 C 47 496 60 501 68 510 C 75 518 79 531 79 548 L 25 548 L 25 672 L 145 672 L 145 548 C 145 508 134 479 114 461 C 94 443 65 433 27 430 L 27 495 Z" horiz-adv-x="170" />
<glyph unicode="‚" d="M 47 -53 C 81 -51 99 -33 99 0 L 45 0 L 45 124 L 165 124 L 165 0 C 165 -40 154 -68 134 -86 C 113 -104 84 -114 47 -118 L 47 -53 Z" horiz-adv-x="210" />
<glyph unicode="“" d="M 191 553 C 191 593 201 623 221 641 C 241 659 271 669 309 672 L 309 606 C 299 605 291 604 285 603 C 278 601 272 599 268 595 C 264 591 261 585 259 579 C 257 572 256 563 256 553 L 310 553 L 310 430 L 191 430 L 191 553 Z M 25 556 C 25 594 35 622 56 640 C 76 658 105 669 143 672 L 143 606 C 129 605 117 601 107 594 C 96 587 91 573 91 553 L 145 553 L 145 430 L 25 430 L 25 556 Z" horiz-adv-x="335" />
<glyph unicode="”" d="M 27 495 C 40 495 52 499 63 507 C 73 514 79 528 79 548 L 25 548 L 25 672 L 145 672 L 145 545 C 145 506 134 478 113 461 C 91 443 63 433 27 430 L 27 495 Z M 193 495 C 207 494 220 498 230 506 C 240 514 245 528 245 548 L 191 548 L 191 672 L 311 672 L 311 548 C 311 508 300 479 280 461 C 260 443 231 433 193 430 L 193 495 Z" horiz-adv-x="336" />
<glyph unicode="„" d="M 47 -53 C 81 -51 99 -33 99 0 L 45 0 L 45 124 L 165 124 L 165 0 C 165 -40 154 -68 134 -86 C 113 -104 84 -114 47 -118 L 47 -53 Z M 205 -53 C 239 -51 257 -33 257 0 L 203 0 L 203 124 L 323 124 L 323 0 C 323 -40 312 -68 292 -86 C 271 -104 242 -114 205 -118 L 205 -53 Z" horiz-adv-x="368" />
<glyph unicode="†" d="M 219 401 L 80 401 L 80 503 L 219 503 L 219 701 L 326 701 L 326 503 L 465 503 L 465 401 L 326 401 L 326 -164 L 219 -164 L 219 401 Z" horiz-adv-x="545" />
<glyph unicode="•" d="M 187 155 C 169 155 153 158 138 165 C 122 171 109 180 97 192 C 85 203 76 216 70 232 C 63 247 60 263 60 281 C 60 298 63 314 70 330 C 76 345 85 358 97 370 C 109 381 122 390 138 397 C 153 403 169 407 187 407 C 204 407 220 403 236 397 C 251 390 264 381 276 370 C 287 358 296 345 303 330 C 309 314 313 298 313 281 C 313 263 309 247 303 232 C 296 216 287 203 276 192 C 264 180 251 171 236 165 C 220 158 204 155 187 155 Z" horiz-adv-x="373" />
<glyph unicode="…" d="M 25 0 L 25 124 L 145 124 L 145 0 L 25 0 Z M 244 0 L 244 124 L 364 124 L 364 0 L 244 0 Z M 464 0 L 464 124 L 584 124 L 584 0 L 464 0 Z" horiz-adv-x="609" />
<glyph unicode="‹" d="M 45 276 L 45 396 L 191 511 L 191 414 L 93 336 L 191 259 L 191 161 L 45 276 Z" horiz-adv-x="236" />
<glyph unicode="›" d="M 45 258 L 143 336 L 45 413 L 45 511 L 191 396 L 191 276 L 45 161 L 45 258 Z" horiz-adv-x="236" />
<glyph unicode="⁄" d="M 320 698 L 421 698 L 124 0 L 25 0 L 320 698 Z" horiz-adv-x="446" />
<glyph unicode="℠" d="M 297 672 L 384 672 C 398 640 411 609 425 578 C 438 547 452 517 468 487 L 471 481 C 473 485 475 491 479 499 C 483 507 487 516 491 526 C 495 536 500 546 505 557 C 509 568 514 579 519 590 C 529 615 541 642 554 672 L 641 672 L 641 336 L 562 336 L 562 491 C 552 472 544 453 536 435 C 528 416 519 397 511 379 L 477 379 C 465 379 454 380 446 384 C 438 388 431 393 425 399 C 419 405 414 413 410 422 C 406 430 402 439 398 449 C 394 456 391 463 387 471 C 383 479 379 487 376 495 L 376 336 L 297 336 L 297 672 Z M 150 332 C 134 332 119 334 103 339 C 87 344 73 351 61 360 C 49 369 39 380 31 394 C 23 407 20 422 20 440 L 100 440 C 100 427 105 418 117 412 C 128 406 139 403 150 403 C 155 403 160 403 166 404 C 172 405 177 407 182 409 C 187 411 191 415 195 419 C 198 423 200 429 200 436 C 200 444 195 451 187 457 C 179 462 168 467 156 471 C 144 475 130 479 116 484 C 101 488 87 494 75 502 C 63 510 52 520 44 532 C 36 544 32 560 32 580 C 32 596 35 610 42 622 C 48 634 57 645 68 653 C 79 661 92 667 106 671 C 120 675 134 677 149 677 C 161 677 174 675 188 671 C 201 667 213 662 224 655 C 235 647 244 638 251 627 C 258 616 262 604 262 590 L 187 590 C 185 597 180 602 172 605 C 164 608 156 610 150 610 C 141 610 132 608 123 605 C 113 601 109 594 109 584 C 109 574 113 567 121 562 C 129 556 140 551 153 547 C 165 543 179 538 194 534 C 209 530 223 524 236 516 C 248 508 259 499 267 487 C 275 475 280 459 280 440 C 280 422 276 407 268 394 C 260 380 250 369 238 360 C 226 350 212 343 196 339 C 180 334 165 332 150 332 Z" horiz-adv-x="676" />
<glyph unicode="™" d="M 229 672 L 287 672 C 296 650 305 629 315 609 C 324 588 334 568 344 548 L 346 544 C 349 549 354 559 360 573 C 366 587 372 602 378 617 C 385 634 393 652 401 672 L 459 672 L 459 448 L 406 448 L 406 551 C 400 538 394 525 388 513 C 382 501 377 488 372 476 L 350 476 C 333 476 321 480 315 489 C 308 498 302 509 297 523 L 282 554 L 282 448 L 229 448 L 229 672 Z M 90 596 C 90 606 93 614 99 620 L 25 620 L 25 672 L 209 672 L 209 620 L 169 620 C 161 620 154 617 150 612 C 145 606 143 600 143 593 L 143 448 L 90 448 L 90 596 Z" horiz-adv-x="522" />
<glyph unicode="−" d="M 25 299 L 504 299 L 504 179 L 25 179 L 25 299 Z" horiz-adv-x="529" />
<glyph unicode="≈" d="M 45 388 C 60 411 78 431 100 447 C 122 463 148 472 178 472 C 196 472 215 468 234 461 C 253 453 272 445 290 437 C 308 428 326 420 343 413 C 360 405 376 402 392 402 C 400 402 409 403 419 407 C 428 411 437 416 446 422 C 454 428 462 434 469 442 C 476 449 482 456 488 464 L 526 372 C 508 351 488 333 466 317 C 444 301 418 293 389 293 C 369 293 351 296 334 304 C 316 311 299 319 282 328 C 265 336 248 344 231 352 C 214 359 197 363 179 363 C 157 363 138 355 124 341 C 110 327 97 312 85 296 L 45 388 Z M 45 187 C 60 210 78 230 100 246 C 122 262 148 271 178 271 C 196 271 215 267 234 260 C 253 252 272 244 290 236 C 308 227 326 219 343 212 C 360 204 376 201 392 201 C 400 201 409 202 419 206 C 428 210 437 215 446 221 C 454 227 462 233 469 241 C 476 248 482 255 488 263 L 526 171 C 508 150 488 132 466 116 C 444 100 418 92 389 92 C 369 92 351 95 334 103 C 316 110 299 118 282 127 C 265 135 248 143 231 151 C 214 158 197 162 179 162 C 157 162 138 154 124 140 C 110 126 97 111 85 95 L 45 187 Z" horiz-adv-x="571" />
<glyph unicode="◊" d="M 296 -1 C 264 -1 237 7 217 23 C 197 39 178 62 160 90 L 8 327 L 105 393 L 257 157 C 259 153 262 149 266 145 L 409 672 L 531 672 L 351 -1 L 296 -1 L 296 -1 Z" horiz-adv-x="548" />
</font>
</defs>
</svg>
